<?xml version="1.0" encoding="utf-8" standalone="no"?>
<!DOCTYPE svg PUBLIC "-//W3C//DTD SVG 1.1//EN"
  "http://www.w3.org/Graphics/SVG/1.1/DTD/svg11.dtd">
<svg xmlns:xlink="http://www.w3.org/1999/xlink" width="723.765625pt" height="392.514375pt" viewBox="0 0 723.765625 392.514375" xmlns="http://www.w3.org/2000/svg" version="1.1">
 <metadata>
  <rdf:RDF xmlns:dc="http://purl.org/dc/elements/1.1/" xmlns:cc="http://creativecommons.org/ns#" xmlns:rdf="http://www.w3.org/1999/02/22-rdf-syntax-ns#">
   <cc:Work>
    <dc:type rdf:resource="http://purl.org/dc/dcmitype/StillImage"/>
    <dc:date>2026-10-09T17:50:44.924544</dc:date>
    <dc:format>image/svg+xml</dc:format>
    <dc:creator>
     <cc:Agent>
      <dc:title>Matplotlib v3.10.1, https://matplotlib.org/</dc:title>
     </cc:Agent>
    </dc:creator>
   </cc:Work>
  </rdf:RDF>
 </metadata>
 <defs>
  <style type="text/css">*{stroke-linejoin: round; stroke-linecap: butt}</style>
 </defs>
 <g id="figure_1">
  <g id="patch_1">
   <path d="M 0 392.514375 
L 723.765625 392.514375 
L 723.765625 0 
L 0 0 
z
" style="fill: #ffffff"/>
  </g>
  <g id="axes_1">
   <g id="patch_2">
    <path d="M 46.965625 354.958125 
L 716.565625 354.958125 
L 716.565625 22.318125 
L 46.965625 22.318125 
z
" style="fill: #ffffff"/>
   </g>
   <g id="FillBetweenPolyCollection_1">
    <defs>
     <path id="ma2b5aab276" d="M 77.401989 -299.331466 
L 77.401989 -151.567698 
L 79.465471 -162.534207 
L 81.528953 -93.737209 
L 83.592435 -127.618681 
L 85.655918 -109.996374 
L 87.7194 -100.022799 
L 89.782882 -126.910135 
L 91.846365 -166.19703 
L 93.909847 -188.290147 
L 95.973329 -159.421554 
L 98.036811 -189.034903 
L 100.100294 -159.27736 
L 102.163776 -160.68732 
L 104.227258 -167.021594 
L 106.290741 -148.298771 
L 108.354223 -146.751898 
L 110.417705 -157.466304 
L 112.481187 -168.321811 
L 114.54467 -145.045419 
L 116.608152 -130.554407 
L 118.671634 -141.484442 
L 120.735117 -176.792267 
L 122.798599 -172.244349 
L 124.862081 -187.913384 
L 126.925563 -190.003495 
L 128.989046 -192.291296 
L 131.052528 -194.784618 
L 133.11601 -183.381904 
L 135.179492 -178.637027 
L 137.242975 -143.467187 
L 139.306457 -159.151981 
L 141.369939 -182.523744 
L 143.433422 -160.558888 
L 145.496904 -155.512663 
L 147.560386 -198.780629 
L 149.623868 -184.416214 
L 151.687351 -210.047921 
L 153.750833 -168.521765 
L 155.814315 -205.737867 
L 157.877798 -197.622698 
L 159.94128 -200.61382 
L 162.004762 -181.274922 
L 164.068244 -142.136889 
L 166.131727 -104.726607 
L 168.195209 -130.751201 
L 170.258691 -136.578648 
L 172.322174 -171.071773 
L 174.385656 -178.820432 
L 176.449138 -119.519341 
L 178.51262 -114.955057 
L 180.576103 -137.993738 
L 182.639585 -149.235638 
L 184.703067 -160.254112 
L 186.766549 -133.701846 
L 188.830032 -149.464277 
L 190.893514 -169.68814 
L 192.956996 -169.890182 
L 195.020479 -174.833838 
L 197.083961 -175.106752 
L 199.147443 -165.304068 
L 201.210925 -168.838413 
L 203.274408 -116.729742 
L 205.33789 -120.101473 
L 207.401372 -120.075452 
L 209.464855 -132.443054 
L 211.528337 -156.6048 
L 213.591819 -171.798147 
L 215.655301 -153.040838 
L 217.718784 -166.691703 
L 219.782266 -161.594883 
L 221.845748 -131.766342 
L 223.909231 -156.071024 
L 225.972713 -161.097143 
L 228.036195 -130.568404 
L 230.099677 -125.42954 
L 232.16316 -115.909665 
L 234.226642 -85.541276 
L 236.290124 -88.63148 
L 238.353607 -103.793045 
L 240.417089 -124.105221 
L 242.480571 -102.993171 
L 244.544053 -97.294111 
L 246.607536 -112.64659 
L 248.671018 -123.002876 
L 250.7345 -144.007436 
L 252.797982 -92.036357 
L 254.861465 -113.53605 
L 256.924947 -102.520822 
L 258.988429 -67.321735 
L 261.051912 -98.279549 
L 263.115394 -99.697593 
L 265.178876 -94.186629 
L 267.242358 -117.403053 
L 269.305841 -128.800659 
L 271.369323 -129.783973 
L 273.432805 -122.330043 
L 275.496288 -150.514613 
L 277.55977 -119.313826 
L 279.623252 -77.235421 
L 281.686734 -96.922571 
L 283.750217 -187.805759 
L 285.813699 -171.666487 
L 287.877181 -194.585314 
L 289.940664 -184.244329 
L 292.004146 -84.42572 
L 294.067628 -137.615496 
L 296.13111 -133.649307 
L 298.194593 -138.895802 
L 300.258075 -124.027417 
L 302.321557 -137.06621 
L 304.385039 -144.774206 
L 306.448522 -163.499876 
L 308.512004 -173.38239 
L 310.575486 -184.935088 
L 312.638969 -166.206946 
L 314.702451 -148.058816 
L 316.765933 -153.503882 
L 318.829415 -152.467564 
L 320.892898 -199.57979 
L 322.95638 -125.203795 
L 325.019862 -115.501056 
L 327.083345 -159.04057 
L 329.146827 -151.627694 
L 331.210309 -149.821977 
L 333.273791 -163.72447 
L 335.337274 -171.953007 
L 337.400756 -159.336082 
L 339.464238 -164.114862 
L 341.527721 -163.101184 
L 343.591203 -167.698844 
L 345.654685 -139.64615 
L 347.718167 -184.508202 
L 349.78165 -174.947523 
L 351.845132 -168.978741 
L 353.908614 -167.330397 
L 355.972096 -167.70021 
L 358.035579 -165.92244 
L 360.099061 -143.431199 
L 362.162543 -152.056066 
L 364.226026 -188.378108 
L 366.289508 -174.221513 
L 368.35299 -201.796091 
L 370.416472 -201.768252 
L 372.479955 -226.318887 
L 374.543437 -239.641383 
L 376.606919 -209.914277 
L 378.670402 -212.982126 
L 380.733884 -200.1558 
L 382.797366 -210.524429 
L 384.860848 -221.113314 
L 386.924331 -230.262913 
L 388.987813 -228.415852 
L 391.051295 -211.462775 
L 393.114778 -194.233873 
L 395.17826 -217.006228 
L 397.241742 -231.295723 
L 399.305224 -198.000808 
L 401.368707 -205.760799 
L 403.432189 -196.685822 
L 405.495671 -184.721266 
L 407.559154 -177.163565 
L 409.622636 -187.909771 
L 411.686118 -196.556111 
L 413.7496 -186.601 
L 415.813083 -180.32061 
L 417.876565 -190.116699 
L 419.940047 -207.760494 
L 422.003529 -189.954001 
L 424.067012 -190.977867 
L 426.130494 -169.800494 
L 428.193976 -194.736481 
L 430.257459 -186.335866 
L 432.320941 -179.621952 
L 434.384423 -158.854475 
L 436.447905 -152.076999 
L 438.511388 -153.941144 
L 440.57487 -207.998317 
L 442.638352 -215.619973 
L 444.701835 -202.611095 
L 446.765317 -179.031888 
L 448.828799 -172.099026 
L 450.892281 -237.754429 
L 452.955764 -234.710784 
L 455.019246 -207.060618 
L 457.082728 -224.561028 
L 459.146211 -233.048818 
L 461.209693 -227.185272 
L 463.273175 -214.318953 
L 465.336657 -223.511311 
L 467.40014 -229.209167 
L 469.463622 -226.924714 
L 471.527104 -215.188392 
L 473.590586 -185.909809 
L 475.654069 -188.640269 
L 477.717551 -150.676681 
L 479.781033 -158.388099 
L 481.844516 -147.370515 
L 483.907998 -170.681541 
L 485.97148 -158.511265 
L 488.034962 -172.054955 
L 490.098445 -180.102459 
L 492.161927 -189.82176 
L 494.225409 -178.577905 
L 496.288892 -128.718454 
L 498.352374 -145.314034 
L 500.415856 -129.913055 
L 502.479338 -122.333983 
L 504.542821 -163.938172 
L 506.606303 -108.590207 
L 508.669785 -152.770833 
L 510.733268 -113.928384 
L 512.79675 -179.535293 
L 514.860232 -176.628329 
L 516.923714 -197.353848 
L 518.987197 -139.793786 
L 521.050679 -174.805663 
L 523.114161 -179.900974 
L 525.177643 -154.935454 
L 527.241126 -164.164491 
L 529.304608 -93.30834 
L 531.36809 -149.955097 
L 533.431573 -52.67625 
L 535.495055 -164.524509 
L 537.558537 -140.066525 
L 539.622019 -123.913718 
L 541.685502 -99.363806 
L 543.748984 -110.115548 
L 545.812466 -156.40002 
L 547.875949 -140.528352 
L 549.939431 -174.054166 
L 552.002913 -188.436799 
L 554.066395 -195.276816 
L 556.129878 -188.500696 
L 558.19336 -128.842691 
L 560.256842 -147.170261 
L 562.320325 -145.263962 
L 564.383807 -143.564894 
L 566.447289 -105.007121 
L 568.510771 -163.082581 
L 570.574254 -117.75641 
L 572.637736 -121.898912 
L 574.701218 -153.042845 
L 576.764701 -163.647527 
L 578.828183 -95.965085 
L 580.891665 -144.353481 
L 582.955147 -132.19257 
L 585.01863 -149.941425 
L 587.082112 -109.606179 
L 589.145594 -137.025435 
L 591.209076 -155.497313 
L 593.272559 -150.629975 
L 595.336041 -152.819395 
L 597.399523 -155.29638 
L 599.463006 -125.371175 
L 601.526488 -137.148976 
L 603.58997 -110.597343 
L 605.653452 -74.617398 
L 607.716935 -104.932591 
L 609.780417 -113.286678 
L 611.843899 -110.660107 
L 613.907382 -102.047921 
L 615.970864 -129.004145 
L 618.034346 -125.447172 
L 620.097828 -106.36484 
L 622.161311 -118.012559 
L 624.224793 -127.224904 
L 626.288275 -123.592069 
L 628.351758 -115.554277 
L 630.41524 -112.122805 
L 632.478722 -134.883996 
L 634.542204 -136.539135 
L 636.605687 -135.145807 
L 638.669169 -129.229598 
L 640.732651 -134.695443 
L 642.796133 -137.722365 
L 644.859616 -144.863196 
L 646.923098 -138.379459 
L 648.98658 -131.034926 
L 651.050063 -118.079843 
L 653.113545 -99.416684 
L 655.177027 -102.978619 
L 657.240509 -98.673306 
L 659.303992 -125.926201 
L 661.367474 -121.169336 
L 663.430956 -119.908196 
L 665.494439 -115.841028 
L 667.557921 -83.156904 
L 669.621403 -55.552498 
L 671.684885 -148.369102 
L 673.748368 -137.757456 
L 675.81185 -155.374632 
L 677.875332 -149.826988 
L 679.938815 -140.638341 
L 682.002297 -130.811498 
L 684.065779 -117.313491 
L 686.129261 -96.117981 
L 686.129261 -254.737964 
L 686.129261 -254.737964 
L 684.065779 -276.892087 
L 682.002297 -291.317346 
L 679.938815 -302.038929 
L 677.875332 -312.021534 
L 675.81185 -318.462029 
L 673.748368 -301.695034 
L 671.684885 -312.879454 
L 669.621403 -220.809689 
L 667.557921 -249.144327 
L 665.494439 -282.575106 
L 663.430956 -287.298468 
L 661.367474 -289.268873 
L 659.303992 -294.715835 
L 657.240509 -267.902032 
L 655.177027 -272.657025 
L 653.113545 -269.382683 
L 651.050063 -288.607782 
L 648.98658 -302.015749 
L 646.923098 -309.876744 
L 644.859616 -316.665265 
L 642.796133 -309.950105 
L 640.732651 -307.307877 
L 638.669169 -302.13853 
L 636.605687 -308.311059 
L 634.542204 -309.944938 
L 632.478722 -308.558822 
L 630.41524 -285.856892 
L 628.351758 -289.532679 
L 626.288275 -297.799475 
L 624.224793 -301.592307 
L 622.161311 -292.399573 
L 620.097828 -280.778245 
L 618.034346 -299.912426 
L 615.970864 -303.534264 
L 613.907382 -276.538406 
L 611.843899 -285.13654 
L 609.780417 -287.657371 
L 607.716935 -279.232871 
L 605.653452 -248.813475 
L 603.58997 -284.64529 
L 601.526488 -311.015967 
L 599.463006 -299.027799 
L 597.399523 -328.724651 
L 595.336041 -325.989913 
L 593.272559 -323.498476 
L 591.209076 -327.950477 
L 589.145594 -309.123274 
L 587.082112 -281.278897 
L 585.01863 -321.17303 
L 582.955147 -302.920744 
L 580.891665 -314.586025 
L 578.828183 -265.658707 
L 576.764701 -332.770804 
L 574.701218 -321.481282 
L 572.637736 -289.675589 
L 570.574254 -284.806189 
L 568.510771 -329.410269 
L 566.447289 -270.539272 
L 564.383807 -308.166557 
L 562.320325 -308.997607 
L 560.256842 -310.009449 
L 558.19336 -290.679971 
L 556.129878 -349.361524 
L 554.066395 -355.07625 
L 552.002913 -347.099277 
L 549.939431 -331.50781 
L 547.875949 -296.652664 
L 545.812466 -311.323919 
L 543.748984 -263.782058 
L 541.685502 -251.747721 
L 539.622019 -274.100887 
L 537.558537 -288.922646 
L 535.495055 -312.293899 
L 533.431573 -199.375385 
L 531.36809 -295.520829 
L 529.304608 -237.669467 
L 527.241126 -307.319153 
L 525.177643 -296.824874 
L 523.114161 -320.482718 
L 521.050679 -314.037609 
L 518.987197 -277.63937 
L 516.923714 -333.717635 
L 514.860232 -311.49606 
L 512.79675 -312.806614 
L 510.733268 -245.373068 
L 508.669785 -282.460338 
L 506.606303 -236.436251 
L 504.542821 -289.940271 
L 502.479338 -246.52383 
L 500.415856 -252.253518 
L 498.352374 -265.739312 
L 496.288892 -247.192013 
L 494.225409 -295.032437 
L 492.161927 -304.142183 
L 490.098445 -292.297413 
L 488.034962 -282.052543 
L 485.97148 -266.091404 
L 483.907998 -275.919559 
L 481.844516 -250.230023 
L 479.781033 -258.79724 
L 477.717551 -248.486724 
L 475.654069 -283.843207 
L 473.590586 -278.481492 
L 471.527104 -304.99521 
L 469.463622 -312.737685 
L 467.40014 -312.534781 
L 465.336657 -304.387194 
L 463.273175 -292.558489 
L 461.209693 -302.715354 
L 459.146211 -305.819158 
L 457.082728 -294.601319 
L 455.019246 -274.233276 
L 452.955764 -298.973575 
L 450.892281 -298.525787 
L 448.828799 -229.666339 
L 446.765317 -233.743991 
L 444.701835 -255.343007 
L 442.638352 -266.417951 
L 440.57487 -256.638319 
L 438.511388 -199.91793 
L 436.447905 -196.341473 
L 434.384423 -201.182747 
L 432.320941 -219.687806 
L 430.257459 -224.711061 
L 428.193976 -231.08278 
L 426.130494 -204.891449 
L 424.067012 -224.114407 
L 422.003529 -221.966962 
L 419.940047 -239.263615 
L 417.876565 -221.141834 
L 415.813083 -210.825386 
L 413.7496 -216.463951 
L 411.686118 -225.344254 
L 409.622636 -216.054871 
L 407.559154 -205.475067 
L 405.495671 -212.810191 
L 403.432189 -224.868112 
L 401.368707 -234.636607 
L 399.305224 -228.15151 
L 397.241742 -263.269102 
L 395.17826 -250.870627 
L 393.114778 -230.054283 
L 391.051295 -249.047484 
L 388.987813 -267.901168 
L 386.924331 -271.611667 
L 384.860848 -263.818377 
L 382.797366 -255.33015 
L 380.733884 -246.924005 
L 378.670402 -262.382348 
L 376.606919 -262.000478 
L 374.543437 -294.260368 
L 372.479955 -283.494443 
L 370.416472 -261.577825 
L 368.35299 -264.18288 
L 366.289508 -239.076097 
L 364.226026 -255.517995 
L 362.162543 -221.645825 
L 360.099061 -215.367937 
L 358.035579 -240.354159 
L 355.972096 -244.51098 
L 353.908614 -246.546924 
L 351.845132 -250.214018 
L 349.78165 -258.497536 
L 347.718167 -270.304651 
L 345.654685 -226.889143 
L 343.591203 -257.294207 
L 341.527721 -255.194767 
L 339.464238 -258.691607 
L 337.400756 -256.329679 
L 335.337274 -271.103199 
L 333.273791 -265.277208 
L 331.210309 -253.558989 
L 329.146827 -257.476785 
L 327.083345 -266.935656 
L 325.019862 -225.818058 
L 322.95638 -237.818164 
L 320.892898 -314.480497 
L 318.829415 -269.719668 
L 316.765933 -272.982922 
L 314.702451 -269.751439 
L 312.638969 -290.064393 
L 310.575486 -310.929873 
L 308.512004 -301.425634 
L 306.448522 -293.591624 
L 304.385039 -276.758721 
L 302.321557 -270.776978 
L 300.258075 -259.049592 
L 298.194593 -275.665943 
L 296.13111 -272.16834 
L 294.067628 -277.792395 
L 292.004146 -226.199918 
L 289.940664 -327.618921 
L 287.877181 -339.480513 
L 285.813699 -318.035156 
L 283.750217 -335.516433 
L 281.686734 -245.945575 
L 279.623252 -227.565075 
L 277.55977 -270.689056 
L 275.496288 -302.999848 
L 273.432805 -275.814183 
L 271.369323 -284.188975 
L 269.305841 -284.10996 
L 267.242358 -273.596402 
L 265.178876 -251.188074 
L 263.115394 -257.444162 
L 261.051912 -256.690457 
L 258.988429 -226.076105 
L 256.924947 -261.751665 
L 254.861465 -273.175499 
L 252.797982 -252.034181 
L 250.7345 -304.250746 
L 248.671018 -283.429216 
L 246.607536 -272.918353 
L 244.544053 -257.473232 
L 242.480571 -262.945029 
L 240.417089 -283.761186 
L 238.353607 -263.04445 
L 236.290124 -247.482662 
L 234.226642 -243.905893 
L 232.16316 -273.72985 
L 230.099677 -282.57287 
L 228.036195 -286.914684 
L 225.972713 -316.546847 
L 223.909231 -310.461486 
L 221.845748 -285.063392 
L 219.782266 -313.714308 
L 217.718784 -317.508061 
L 215.655301 -302.446772 
L 213.591819 -319.639665 
L 211.528337 -302.722178 
L 209.464855 -276.767265 
L 207.401372 -262.465689 
L 205.33789 -260.361156 
L 203.274408 -254.739548 
L 201.210925 -304.501403 
L 199.147443 -298.493791 
L 197.083961 -305.597532 
L 195.020479 -302.533127 
L 192.956996 -294.648748 
L 190.893514 -291.271922 
L 188.830032 -267.221637 
L 186.766549 -247.898466 
L 184.703067 -270.823174 
L 182.639585 -255.755147 
L 180.576103 -240.442289 
L 178.51262 -213.045319 
L 176.449138 -212.869434 
L 174.385656 -267.477728 
L 172.322174 -254.660455 
L 170.258691 -214.678296 
L 168.195209 -203.299846 
L 166.131727 -171.5465 
L 164.068244 -202.808115 
L 162.004762 -234.344991 
L 159.94128 -248.256917 
L 157.877798 -239.192632 
L 155.814315 -242.728637 
L 153.750833 -201.609945 
L 151.687351 -241.415598 
L 149.623868 -212.636414 
L 147.560386 -226.453165 
L 145.496904 -182.164306 
L 143.433422 -187.919382 
L 141.369939 -209.654828 
L 139.306457 -188.366846 
L 137.242975 -174.119849 
L 135.179492 -212.824524 
L 133.11601 -220.531847 
L 131.052528 -237.286135 
L 128.989046 -239.975242 
L 126.925563 -242.71995 
L 124.862081 -245.70353 
L 122.798599 -235.196243 
L 120.735117 -244.718432 
L 118.671634 -214.349934 
L 116.608152 -208.489567 
L 114.54467 -227.804599 
L 112.481187 -255.998098 
L 110.417705 -249.951822 
L 108.354223 -243.984289 
L 106.290741 -250.195916 
L 104.227258 -273.481723 
L 102.163776 -271.541269 
L 100.100294 -274.458949 
L 98.036811 -308.372761 
L 95.973329 -282.80119 
L 93.909847 -315.534169 
L 91.846365 -297.182453 
L 89.782882 -261.451861 
L 87.7194 -237.799433 
L 85.655918 -250.72707 
L 83.592435 -270.916259 
L 81.528953 -239.165958 
L 79.465471 -309.52027 
L 77.401989 -299.331466 
z
" style="stroke: #4fa8c8; stroke-opacity: 0.2"/>
    </defs>
    <g clip-path="url(#paab5a021cc)">
     <use xlink:href="#ma2b5aab276" x="0" y="392.514375" style="fill: #4fa8c8; fill-opacity: 0.2; stroke: #4fa8c8; stroke-opacity: 0.2"/>
    </g>
   </g>
   <g id="matplotlib.axis_1">
    <g id="xtick_1">
     <g id="line2d_1">
      <path d="M 77.401989 354.958125 
L 77.401989 22.318125 
" clip-path="url(#paab5a021cc)" style="fill: none; stroke: #b0b0b0; stroke-opacity: 0.3; stroke-width: 0.8; stroke-linecap: square"/>
     </g>
     <g id="line2d_2">
      <defs>
       <path id="mab15663846" d="M 0 0 
L 0 3.5 
" style="stroke: #000000; stroke-width: 0.8"/>
      </defs>
      <g>
       <use xlink:href="#mab15663846" x="77.401989" y="354.958125" style="stroke: #000000; stroke-width: 0.8"/>
      </g>
     </g>
     <g id="text_1">
      <!-- 0 -->
      <g transform="translate(74.220739 369.556562) scale(0.1 -0.1)">
       <defs>
        <path id="DejaVuSans-30" d="M 2034 4250 
Q 1547 4250 1301 3770 
Q 1056 3291 1056 2328 
Q 1056 1369 1301 889 
Q 1547 409 2034 409 
Q 2525 409 2770 889 
Q 3016 1369 3016 2328 
Q 3016 3291 2770 3770 
Q 2525 4250 2034 4250 
z
M 2034 4750 
Q 2819 4750 3233 4129 
Q 3647 3509 3647 2328 
Q 3647 1150 3233 529 
Q 2819 -91 2034 -91 
Q 1250 -91 836 529 
Q 422 1150 422 2328 
Q 422 3509 836 4129 
Q 1250 4750 2034 4750 
z
" transform="scale(0.015625)"/>
       </defs>
       <use xlink:href="#DejaVuSans-30"/>
      </g>
     </g>
    </g>
    <g id="xtick_2">
     <g id="line2d_3">
      <path d="M 180.576103 354.958125 
L 180.576103 22.318125 
" clip-path="url(#paab5a021cc)" style="fill: none; stroke: #b0b0b0; stroke-opacity: 0.3; stroke-width: 0.8; stroke-linecap: square"/>
     </g>
     <g id="line2d_4">
      <g>
       <use xlink:href="#mab15663846" x="180.576103" y="354.958125" style="stroke: #000000; stroke-width: 0.8"/>
      </g>
     </g>
     <g id="text_2">
      <!-- 50 -->
      <g transform="translate(174.213603 369.556562) scale(0.1 -0.1)">
       <defs>
        <path id="DejaVuSans-35" d="M 691 4666 
L 3169 4666 
L 3169 4134 
L 1269 4134 
L 1269 2991 
Q 1406 3038 1543 3061 
Q 1681 3084 1819 3084 
Q 2600 3084 3056 2656 
Q 3513 2228 3513 1497 
Q 3513 744 3044 326 
Q 2575 -91 1722 -91 
Q 1428 -91 1123 -41 
Q 819 9 494 109 
L 494 744 
Q 775 591 1075 516 
Q 1375 441 1709 441 
Q 2250 441 2565 725 
Q 2881 1009 2881 1497 
Q 2881 1984 2565 2268 
Q 2250 2553 1709 2553 
Q 1456 2553 1204 2497 
Q 953 2441 691 2322 
L 691 4666 
z
" transform="scale(0.015625)"/>
       </defs>
       <use xlink:href="#DejaVuSans-35"/>
       <use xlink:href="#DejaVuSans-30" transform="translate(63.623047 0)"/>
      </g>
     </g>
    </g>
    <g id="xtick_3">
     <g id="line2d_5">
      <path d="M 283.750217 354.958125 
L 283.750217 22.318125 
" clip-path="url(#paab5a021cc)" style="fill: none; stroke: #b0b0b0; stroke-opacity: 0.3; stroke-width: 0.8; stroke-linecap: square"/>
     </g>
     <g id="line2d_6">
      <g>
       <use xlink:href="#mab15663846" x="283.750217" y="354.958125" style="stroke: #000000; stroke-width: 0.8"/>
      </g>
     </g>
     <g id="text_3">
      <!-- 100 -->
      <g transform="translate(274.206467 369.556562) scale(0.1 -0.1)">
       <defs>
        <path id="DejaVuSans-31" d="M 794 531 
L 1825 531 
L 1825 4091 
L 703 3866 
L 703 4441 
L 1819 4666 
L 2450 4666 
L 2450 531 
L 3481 531 
L 3481 0 
L 794 0 
L 794 531 
z
" transform="scale(0.015625)"/>
       </defs>
       <use xlink:href="#DejaVuSans-31"/>
       <use xlink:href="#DejaVuSans-30" transform="translate(63.623047 0)"/>
       <use xlink:href="#DejaVuSans-30" transform="translate(127.246094 0)"/>
      </g>
     </g>
    </g>
    <g id="xtick_4">
     <g id="line2d_7">
      <path d="M 386.924331 354.958125 
L 386.924331 22.318125 
" clip-path="url(#paab5a021cc)" style="fill: none; stroke: #b0b0b0; stroke-opacity: 0.3; stroke-width: 0.8; stroke-linecap: square"/>
     </g>
     <g id="line2d_8">
      <g>
       <use xlink:href="#mab15663846" x="386.924331" y="354.958125" style="stroke: #000000; stroke-width: 0.8"/>
      </g>
     </g>
     <g id="text_4">
      <!-- 150 -->
      <g transform="translate(377.380581 369.556562) scale(0.1 -0.1)">
       <use xlink:href="#DejaVuSans-31"/>
       <use xlink:href="#DejaVuSans-35" transform="translate(63.623047 0)"/>
       <use xlink:href="#DejaVuSans-30" transform="translate(127.246094 0)"/>
      </g>
     </g>
    </g>
    <g id="xtick_5">
     <g id="line2d_9">
      <path d="M 490.098445 354.958125 
L 490.098445 22.318125 
" clip-path="url(#paab5a021cc)" style="fill: none; stroke: #b0b0b0; stroke-opacity: 0.3; stroke-width: 0.8; stroke-linecap: square"/>
     </g>
     <g id="line2d_10">
      <g>
       <use xlink:href="#mab15663846" x="490.098445" y="354.958125" style="stroke: #000000; stroke-width: 0.8"/>
      </g>
     </g>
     <g id="text_5">
      <!-- 200 -->
      <g transform="translate(480.554695 369.556562) scale(0.1 -0.1)">
       <defs>
        <path id="DejaVuSans-32" d="M 1228 531 
L 3431 531 
L 3431 0 
L 469 0 
L 469 531 
Q 828 903 1448 1529 
Q 2069 2156 2228 2338 
Q 2531 2678 2651 2914 
Q 2772 3150 2772 3378 
Q 2772 3750 2511 3984 
Q 2250 4219 1831 4219 
Q 1534 4219 1204 4116 
Q 875 4013 500 3803 
L 500 4441 
Q 881 4594 1212 4672 
Q 1544 4750 1819 4750 
Q 2544 4750 2975 4387 
Q 3406 4025 3406 3419 
Q 3406 3131 3298 2873 
Q 3191 2616 2906 2266 
Q 2828 2175 2409 1742 
Q 1991 1309 1228 531 
z
" transform="scale(0.015625)"/>
       </defs>
       <use xlink:href="#DejaVuSans-32"/>
       <use xlink:href="#DejaVuSans-30" transform="translate(63.623047 0)"/>
       <use xlink:href="#DejaVuSans-30" transform="translate(127.246094 0)"/>
      </g>
     </g>
    </g>
    <g id="xtick_6">
     <g id="line2d_11">
      <path d="M 593.272559 354.958125 
L 593.272559 22.318125 
" clip-path="url(#paab5a021cc)" style="fill: none; stroke: #b0b0b0; stroke-opacity: 0.3; stroke-width: 0.8; stroke-linecap: square"/>
     </g>
     <g id="line2d_12">
      <g>
       <use xlink:href="#mab15663846" x="593.272559" y="354.958125" style="stroke: #000000; stroke-width: 0.8"/>
      </g>
     </g>
     <g id="text_6">
      <!-- 250 -->
      <g transform="translate(583.728809 369.556562) scale(0.1 -0.1)">
       <use xlink:href="#DejaVuSans-32"/>
       <use xlink:href="#DejaVuSans-35" transform="translate(63.623047 0)"/>
       <use xlink:href="#DejaVuSans-30" transform="translate(127.246094 0)"/>
      </g>
     </g>
    </g>
    <g id="xtick_7">
     <g id="line2d_13">
      <path d="M 696.446673 354.958125 
L 696.446673 22.318125 
" clip-path="url(#paab5a021cc)" style="fill: none; stroke: #b0b0b0; stroke-opacity: 0.3; stroke-width: 0.8; stroke-linecap: square"/>
     </g>
     <g id="line2d_14">
      <g>
       <use xlink:href="#mab15663846" x="696.446673" y="354.958125" style="stroke: #000000; stroke-width: 0.8"/>
      </g>
     </g>
     <g id="text_7">
      <!-- 300 -->
      <g transform="translate(686.902923 369.556562) scale(0.1 -0.1)">
       <defs>
        <path id="DejaVuSans-33" d="M 2597 2516 
Q 3050 2419 3304 2112 
Q 3559 1806 3559 1356 
Q 3559 666 3084 287 
Q 2609 -91 1734 -91 
Q 1441 -91 1130 -33 
Q 819 25 488 141 
L 488 750 
Q 750 597 1062 519 
Q 1375 441 1716 441 
Q 2309 441 2620 675 
Q 2931 909 2931 1356 
Q 2931 1769 2642 2001 
Q 2353 2234 1838 2234 
L 1294 2234 
L 1294 2753 
L 1863 2753 
Q 2328 2753 2575 2939 
Q 2822 3125 2822 3475 
Q 2822 3834 2567 4026 
Q 2313 4219 1838 4219 
Q 1578 4219 1281 4162 
Q 984 4106 628 3988 
L 628 4550 
Q 988 4650 1302 4700 
Q 1616 4750 1894 4750 
Q 2613 4750 3031 4423 
Q 3450 4097 3450 3541 
Q 3450 3153 3228 2886 
Q 3006 2619 2597 2516 
z
" transform="scale(0.015625)"/>
       </defs>
       <use xlink:href="#DejaVuSans-33"/>
       <use xlink:href="#DejaVuSans-30" transform="translate(63.623047 0)"/>
       <use xlink:href="#DejaVuSans-30" transform="translate(127.246094 0)"/>
      </g>
     </g>
    </g>
    <g id="text_8">
     <!-- Time (sessions) -->
     <g transform="translate(342.928906 383.234687) scale(0.1 -0.1)">
      <defs>
       <path id="DejaVuSans-54" d="M -19 4666 
L 3928 4666 
L 3928 4134 
L 2272 4134 
L 2272 0 
L 1638 0 
L 1638 4134 
L -19 4134 
L -19 4666 
z
" transform="scale(0.015625)"/>
       <path id="DejaVuSans-69" d="M 603 3500 
L 1178 3500 
L 1178 0 
L 603 0 
L 603 3500 
z
M 603 4863 
L 1178 4863 
L 1178 4134 
L 603 4134 
L 603 4863 
z
" transform="scale(0.015625)"/>
       <path id="DejaVuSans-6d" d="M 3328 2828 
Q 3544 3216 3844 3400 
Q 4144 3584 4550 3584 
Q 5097 3584 5394 3201 
Q 5691 2819 5691 2113 
L 5691 0 
L 5113 0 
L 5113 2094 
Q 5113 2597 4934 2840 
Q 4756 3084 4391 3084 
Q 3944 3084 3684 2787 
Q 3425 2491 3425 1978 
L 3425 0 
L 2847 0 
L 2847 2094 
Q 2847 2600 2669 2842 
Q 2491 3084 2119 3084 
Q 1678 3084 1418 2786 
Q 1159 2488 1159 1978 
L 1159 0 
L 581 0 
L 581 3500 
L 1159 3500 
L 1159 2956 
Q 1356 3278 1631 3431 
Q 1906 3584 2284 3584 
Q 2666 3584 2933 3390 
Q 3200 3197 3328 2828 
z
" transform="scale(0.015625)"/>
       <path id="DejaVuSans-65" d="M 3597 1894 
L 3597 1613 
L 953 1613 
Q 991 1019 1311 708 
Q 1631 397 2203 397 
Q 2534 397 2845 478 
Q 3156 559 3463 722 
L 3463 178 
Q 3153 47 2828 -22 
Q 2503 -91 2169 -91 
Q 1331 -91 842 396 
Q 353 884 353 1716 
Q 353 2575 817 3079 
Q 1281 3584 2069 3584 
Q 2775 3584 3186 3129 
Q 3597 2675 3597 1894 
z
M 3022 2063 
Q 3016 2534 2758 2815 
Q 2500 3097 2075 3097 
Q 1594 3097 1305 2825 
Q 1016 2553 972 2059 
L 3022 2063 
z
" transform="scale(0.015625)"/>
       <path id="DejaVuSans-20" transform="scale(0.015625)"/>
       <path id="DejaVuSans-28" d="M 1984 4856 
Q 1566 4138 1362 3434 
Q 1159 2731 1159 2009 
Q 1159 1288 1364 580 
Q 1569 -128 1984 -844 
L 1484 -844 
Q 1016 -109 783 600 
Q 550 1309 550 2009 
Q 550 2706 781 3412 
Q 1013 4119 1484 4856 
L 1984 4856 
z
" transform="scale(0.015625)"/>
       <path id="DejaVuSans-73" d="M 2834 3397 
L 2834 2853 
Q 2591 2978 2328 3040 
Q 2066 3103 1784 3103 
Q 1356 3103 1142 2972 
Q 928 2841 928 2578 
Q 928 2378 1081 2264 
Q 1234 2150 1697 2047 
L 1894 2003 
Q 2506 1872 2764 1633 
Q 3022 1394 3022 966 
Q 3022 478 2636 193 
Q 2250 -91 1575 -91 
Q 1294 -91 989 -36 
Q 684 19 347 128 
L 347 722 
Q 666 556 975 473 
Q 1284 391 1588 391 
Q 1994 391 2212 530 
Q 2431 669 2431 922 
Q 2431 1156 2273 1281 
Q 2116 1406 1581 1522 
L 1381 1569 
Q 847 1681 609 1914 
Q 372 2147 372 2553 
Q 372 3047 722 3315 
Q 1072 3584 1716 3584 
Q 2034 3584 2315 3537 
Q 2597 3491 2834 3397 
z
" transform="scale(0.015625)"/>
       <path id="DejaVuSans-6f" d="M 1959 3097 
Q 1497 3097 1228 2736 
Q 959 2375 959 1747 
Q 959 1119 1226 758 
Q 1494 397 1959 397 
Q 2419 397 2687 759 
Q 2956 1122 2956 1747 
Q 2956 2369 2687 2733 
Q 2419 3097 1959 3097 
z
M 1959 3584 
Q 2709 3584 3137 3096 
Q 3566 2609 3566 1747 
Q 3566 888 3137 398 
Q 2709 -91 1959 -91 
Q 1206 -91 779 398 
Q 353 888 353 1747 
Q 353 2609 779 3096 
Q 1206 3584 1959 3584 
z
" transform="scale(0.015625)"/>
       <path id="DejaVuSans-6e" d="M 3513 2113 
L 3513 0 
L 2938 0 
L 2938 2094 
Q 2938 2591 2744 2837 
Q 2550 3084 2163 3084 
Q 1697 3084 1428 2787 
Q 1159 2491 1159 1978 
L 1159 0 
L 581 0 
L 581 3500 
L 1159 3500 
L 1159 2956 
Q 1366 3272 1645 3428 
Q 1925 3584 2291 3584 
Q 2894 3584 3203 3211 
Q 3513 2838 3513 2113 
z
" transform="scale(0.015625)"/>
       <path id="DejaVuSans-29" d="M 513 4856 
L 1013 4856 
Q 1481 4119 1714 3412 
Q 1947 2706 1947 2009 
Q 1947 1309 1714 600 
Q 1481 -109 1013 -844 
L 513 -844 
Q 928 -128 1133 580 
Q 1338 1288 1338 2009 
Q 1338 2731 1133 3434 
Q 928 4138 513 4856 
z
" transform="scale(0.015625)"/>
      </defs>
      <use xlink:href="#DejaVuSans-54"/>
      <use xlink:href="#DejaVuSans-69" transform="translate(57.958984 0)"/>
      <use xlink:href="#DejaVuSans-6d" transform="translate(85.742188 0)"/>
      <use xlink:href="#DejaVuSans-65" transform="translate(183.154297 0)"/>
      <use xlink:href="#DejaVuSans-20" transform="translate(244.677734 0)"/>
      <use xlink:href="#DejaVuSans-28" transform="translate(276.464844 0)"/>
      <use xlink:href="#DejaVuSans-73" transform="translate(315.478516 0)"/>
      <use xlink:href="#DejaVuSans-65" transform="translate(367.578125 0)"/>
      <use xlink:href="#DejaVuSans-73" transform="translate(429.101562 0)"/>
      <use xlink:href="#DejaVuSans-73" transform="translate(481.201172 0)"/>
      <use xlink:href="#DejaVuSans-69" transform="translate(533.300781 0)"/>
      <use xlink:href="#DejaVuSans-6f" transform="translate(561.083984 0)"/>
      <use xlink:href="#DejaVuSans-6e" transform="translate(622.265625 0)"/>
      <use xlink:href="#DejaVuSans-73" transform="translate(685.644531 0)"/>
      <use xlink:href="#DejaVuSans-29" transform="translate(737.744141 0)"/>
     </g>
    </g>
   </g>
   <g id="matplotlib.axis_2">
    <g id="ytick_1">
     <g id="line2d_15">
      <path d="M 46.965625 349.662392 
L 716.565625 349.662392 
" clip-path="url(#paab5a021cc)" style="fill: none; stroke: #b0b0b0; stroke-opacity: 0.3; stroke-width: 0.8; stroke-linecap: square"/>
     </g>
     <g id="line2d_16">
      <defs>
       <path id="md58eb5124f" d="M 0 0 
L -3.5 0 
" style="stroke: #000000; stroke-width: 0.8"/>
      </defs>
      <g>
       <use xlink:href="#md58eb5124f" x="46.965625" y="349.662392" style="stroke: #000000; stroke-width: 0.8"/>
      </g>
     </g>
     <g id="text_9">
      <!-- 110 -->
      <g transform="translate(20.878125 353.46161) scale(0.1 -0.1)">
       <use xlink:href="#DejaVuSans-31"/>
       <use xlink:href="#DejaVuSans-31" transform="translate(63.623047 0)"/>
       <use xlink:href="#DejaVuSans-30" transform="translate(127.246094 0)"/>
      </g>
     </g>
    </g>
    <g id="ytick_2">
     <g id="line2d_17">
      <path d="M 46.965625 310.77719 
L 716.565625 310.77719 
" clip-path="url(#paab5a021cc)" style="fill: none; stroke: #b0b0b0; stroke-opacity: 0.3; stroke-width: 0.8; stroke-linecap: square"/>
     </g>
     <g id="line2d_18">
      <g>
       <use xlink:href="#md58eb5124f" x="46.965625" y="310.77719" style="stroke: #000000; stroke-width: 0.8"/>
      </g>
     </g>
     <g id="text_10">
      <!-- 120 -->
      <g transform="translate(20.878125 314.576409) scale(0.1 -0.1)">
       <use xlink:href="#DejaVuSans-31"/>
       <use xlink:href="#DejaVuSans-32" transform="translate(63.623047 0)"/>
       <use xlink:href="#DejaVuSans-30" transform="translate(127.246094 0)"/>
      </g>
     </g>
    </g>
    <g id="ytick_3">
     <g id="line2d_19">
      <path d="M 46.965625 271.891988 
L 716.565625 271.891988 
" clip-path="url(#paab5a021cc)" style="fill: none; stroke: #b0b0b0; stroke-opacity: 0.3; stroke-width: 0.8; stroke-linecap: square"/>
     </g>
     <g id="line2d_20">
      <g>
       <use xlink:href="#md58eb5124f" x="46.965625" y="271.891988" style="stroke: #000000; stroke-width: 0.8"/>
      </g>
     </g>
     <g id="text_11">
      <!-- 130 -->
      <g transform="translate(20.878125 275.691207) scale(0.1 -0.1)">
       <use xlink:href="#DejaVuSans-31"/>
       <use xlink:href="#DejaVuSans-33" transform="translate(63.623047 0)"/>
       <use xlink:href="#DejaVuSans-30" transform="translate(127.246094 0)"/>
      </g>
     </g>
    </g>
    <g id="ytick_4">
     <g id="line2d_21">
      <path d="M 46.965625 233.006786 
L 716.565625 233.006786 
" clip-path="url(#paab5a021cc)" style="fill: none; stroke: #b0b0b0; stroke-opacity: 0.3; stroke-width: 0.8; stroke-linecap: square"/>
     </g>
     <g id="line2d_22">
      <g>
       <use xlink:href="#md58eb5124f" x="46.965625" y="233.006786" style="stroke: #000000; stroke-width: 0.8"/>
      </g>
     </g>
     <g id="text_12">
      <!-- 140 -->
      <g transform="translate(20.878125 236.806005) scale(0.1 -0.1)">
       <defs>
        <path id="DejaVuSans-34" d="M 2419 4116 
L 825 1625 
L 2419 1625 
L 2419 4116 
z
M 2253 4666 
L 3047 4666 
L 3047 1625 
L 3713 1625 
L 3713 1100 
L 3047 1100 
L 3047 0 
L 2419 0 
L 2419 1100 
L 313 1100 
L 313 1709 
L 2253 4666 
z
" transform="scale(0.015625)"/>
       </defs>
       <use xlink:href="#DejaVuSans-31"/>
       <use xlink:href="#DejaVuSans-34" transform="translate(63.623047 0)"/>
       <use xlink:href="#DejaVuSans-30" transform="translate(127.246094 0)"/>
      </g>
     </g>
    </g>
    <g id="ytick_5">
     <g id="line2d_23">
      <path d="M 46.965625 194.121584 
L 716.565625 194.121584 
" clip-path="url(#paab5a021cc)" style="fill: none; stroke: #b0b0b0; stroke-opacity: 0.3; stroke-width: 0.8; stroke-linecap: square"/>
     </g>
     <g id="line2d_24">
      <g>
       <use xlink:href="#md58eb5124f" x="46.965625" y="194.121584" style="stroke: #000000; stroke-width: 0.8"/>
      </g>
     </g>
     <g id="text_13">
      <!-- 150 -->
      <g transform="translate(20.878125 197.920803) scale(0.1 -0.1)">
       <use xlink:href="#DejaVuSans-31"/>
       <use xlink:href="#DejaVuSans-35" transform="translate(63.623047 0)"/>
       <use xlink:href="#DejaVuSans-30" transform="translate(127.246094 0)"/>
      </g>
     </g>
    </g>
    <g id="ytick_6">
     <g id="line2d_25">
      <path d="M 46.965625 155.236382 
L 716.565625 155.236382 
" clip-path="url(#paab5a021cc)" style="fill: none; stroke: #b0b0b0; stroke-opacity: 0.3; stroke-width: 0.8; stroke-linecap: square"/>
     </g>
     <g id="line2d_26">
      <g>
       <use xlink:href="#md58eb5124f" x="46.965625" y="155.236382" style="stroke: #000000; stroke-width: 0.8"/>
      </g>
     </g>
     <g id="text_14">
      <!-- 160 -->
      <g transform="translate(20.878125 159.035601) scale(0.1 -0.1)">
       <defs>
        <path id="DejaVuSans-36" d="M 2113 2584 
Q 1688 2584 1439 2293 
Q 1191 2003 1191 1497 
Q 1191 994 1439 701 
Q 1688 409 2113 409 
Q 2538 409 2786 701 
Q 3034 994 3034 1497 
Q 3034 2003 2786 2293 
Q 2538 2584 2113 2584 
z
M 3366 4563 
L 3366 3988 
Q 3128 4100 2886 4159 
Q 2644 4219 2406 4219 
Q 1781 4219 1451 3797 
Q 1122 3375 1075 2522 
Q 1259 2794 1537 2939 
Q 1816 3084 2150 3084 
Q 2853 3084 3261 2657 
Q 3669 2231 3669 1497 
Q 3669 778 3244 343 
Q 2819 -91 2113 -91 
Q 1303 -91 875 529 
Q 447 1150 447 2328 
Q 447 3434 972 4092 
Q 1497 4750 2381 4750 
Q 2619 4750 2861 4703 
Q 3103 4656 3366 4563 
z
" transform="scale(0.015625)"/>
       </defs>
       <use xlink:href="#DejaVuSans-31"/>
       <use xlink:href="#DejaVuSans-36" transform="translate(63.623047 0)"/>
       <use xlink:href="#DejaVuSans-30" transform="translate(127.246094 0)"/>
      </g>
     </g>
    </g>
    <g id="ytick_7">
     <g id="line2d_27">
      <path d="M 46.965625 116.35118 
L 716.565625 116.35118 
" clip-path="url(#paab5a021cc)" style="fill: none; stroke: #b0b0b0; stroke-opacity: 0.3; stroke-width: 0.8; stroke-linecap: square"/>
     </g>
     <g id="line2d_28">
      <g>
       <use xlink:href="#md58eb5124f" x="46.965625" y="116.35118" style="stroke: #000000; stroke-width: 0.8"/>
      </g>
     </g>
     <g id="text_15">
      <!-- 170 -->
      <g transform="translate(20.878125 120.150399) scale(0.1 -0.1)">
       <defs>
        <path id="DejaVuSans-37" d="M 525 4666 
L 3525 4666 
L 3525 4397 
L 1831 0 
L 1172 0 
L 2766 4134 
L 525 4134 
L 525 4666 
z
" transform="scale(0.015625)"/>
       </defs>
       <use xlink:href="#DejaVuSans-31"/>
       <use xlink:href="#DejaVuSans-37" transform="translate(63.623047 0)"/>
       <use xlink:href="#DejaVuSans-30" transform="translate(127.246094 0)"/>
      </g>
     </g>
    </g>
    <g id="ytick_8">
     <g id="line2d_29">
      <path d="M 46.965625 77.465979 
L 716.565625 77.465979 
" clip-path="url(#paab5a021cc)" style="fill: none; stroke: #b0b0b0; stroke-opacity: 0.3; stroke-width: 0.8; stroke-linecap: square"/>
     </g>
     <g id="line2d_30">
      <g>
       <use xlink:href="#md58eb5124f" x="46.965625" y="77.465979" style="stroke: #000000; stroke-width: 0.8"/>
      </g>
     </g>
     <g id="text_16">
      <!-- 180 -->
      <g transform="translate(20.878125 81.265197) scale(0.1 -0.1)">
       <defs>
        <path id="DejaVuSans-38" d="M 2034 2216 
Q 1584 2216 1326 1975 
Q 1069 1734 1069 1313 
Q 1069 891 1326 650 
Q 1584 409 2034 409 
Q 2484 409 2743 651 
Q 3003 894 3003 1313 
Q 3003 1734 2745 1975 
Q 2488 2216 2034 2216 
z
M 1403 2484 
Q 997 2584 770 2862 
Q 544 3141 544 3541 
Q 544 4100 942 4425 
Q 1341 4750 2034 4750 
Q 2731 4750 3128 4425 
Q 3525 4100 3525 3541 
Q 3525 3141 3298 2862 
Q 3072 2584 2669 2484 
Q 3125 2378 3379 2068 
Q 3634 1759 3634 1313 
Q 3634 634 3220 271 
Q 2806 -91 2034 -91 
Q 1263 -91 848 271 
Q 434 634 434 1313 
Q 434 1759 690 2068 
Q 947 2378 1403 2484 
z
M 1172 3481 
Q 1172 3119 1398 2916 
Q 1625 2713 2034 2713 
Q 2441 2713 2670 2916 
Q 2900 3119 2900 3481 
Q 2900 3844 2670 4047 
Q 2441 4250 2034 4250 
Q 1625 4250 1398 4047 
Q 1172 3844 1172 3481 
z
" transform="scale(0.015625)"/>
       </defs>
       <use xlink:href="#DejaVuSans-31"/>
       <use xlink:href="#DejaVuSans-38" transform="translate(63.623047 0)"/>
       <use xlink:href="#DejaVuSans-30" transform="translate(127.246094 0)"/>
      </g>
     </g>
    </g>
    <g id="ytick_9">
     <g id="line2d_31">
      <path d="M 46.965625 38.580777 
L 716.565625 38.580777 
" clip-path="url(#paab5a021cc)" style="fill: none; stroke: #b0b0b0; stroke-opacity: 0.3; stroke-width: 0.8; stroke-linecap: square"/>
     </g>
     <g id="line2d_32">
      <g>
       <use xlink:href="#md58eb5124f" x="46.965625" y="38.580777" style="stroke: #000000; stroke-width: 0.8"/>
      </g>
     </g>
     <g id="text_17">
      <!-- 190 -->
      <g transform="translate(20.878125 42.379995) scale(0.1 -0.1)">
       <defs>
        <path id="DejaVuSans-39" d="M 703 97 
L 703 672 
Q 941 559 1184 500 
Q 1428 441 1663 441 
Q 2288 441 2617 861 
Q 2947 1281 2994 2138 
Q 2813 1869 2534 1725 
Q 2256 1581 1919 1581 
Q 1219 1581 811 2004 
Q 403 2428 403 3163 
Q 403 3881 828 4315 
Q 1253 4750 1959 4750 
Q 2769 4750 3195 4129 
Q 3622 3509 3622 2328 
Q 3622 1225 3098 567 
Q 2575 -91 1691 -91 
Q 1453 -91 1209 -44 
Q 966 3 703 97 
z
M 1959 2075 
Q 2384 2075 2632 2365 
Q 2881 2656 2881 3163 
Q 2881 3666 2632 3958 
Q 2384 4250 1959 4250 
Q 1534 4250 1286 3958 
Q 1038 3666 1038 3163 
Q 1038 2656 1286 2365 
Q 1534 2075 1959 2075 
z
" transform="scale(0.015625)"/>
       </defs>
       <use xlink:href="#DejaVuSans-31"/>
       <use xlink:href="#DejaVuSans-39" transform="translate(63.623047 0)"/>
       <use xlink:href="#DejaVuSans-30" transform="translate(127.246094 0)"/>
      </g>
     </g>
    </g>
    <g id="text_18">
     <!-- Heart Rate -->
     <g transform="translate(14.798438 215.606094) rotate(-90) scale(0.1 -0.1)">
      <defs>
       <path id="DejaVuSans-48" d="M 628 4666 
L 1259 4666 
L 1259 2753 
L 3553 2753 
L 3553 4666 
L 4184 4666 
L 4184 0 
L 3553 0 
L 3553 2222 
L 1259 2222 
L 1259 0 
L 628 0 
L 628 4666 
z
" transform="scale(0.015625)"/>
       <path id="DejaVuSans-61" d="M 2194 1759 
Q 1497 1759 1228 1600 
Q 959 1441 959 1056 
Q 959 750 1161 570 
Q 1363 391 1709 391 
Q 2188 391 2477 730 
Q 2766 1069 2766 1631 
L 2766 1759 
L 2194 1759 
z
M 3341 1997 
L 3341 0 
L 2766 0 
L 2766 531 
Q 2569 213 2275 61 
Q 1981 -91 1556 -91 
Q 1019 -91 701 211 
Q 384 513 384 1019 
Q 384 1609 779 1909 
Q 1175 2209 1959 2209 
L 2766 2209 
L 2766 2266 
Q 2766 2663 2505 2880 
Q 2244 3097 1772 3097 
Q 1472 3097 1187 3025 
Q 903 2953 641 2809 
L 641 3341 
Q 956 3463 1253 3523 
Q 1550 3584 1831 3584 
Q 2591 3584 2966 3190 
Q 3341 2797 3341 1997 
z
" transform="scale(0.015625)"/>
       <path id="DejaVuSans-72" d="M 2631 2963 
Q 2534 3019 2420 3045 
Q 2306 3072 2169 3072 
Q 1681 3072 1420 2755 
Q 1159 2438 1159 1844 
L 1159 0 
L 581 0 
L 581 3500 
L 1159 3500 
L 1159 2956 
Q 1341 3275 1631 3429 
Q 1922 3584 2338 3584 
Q 2397 3584 2469 3576 
Q 2541 3569 2628 3553 
L 2631 2963 
z
" transform="scale(0.015625)"/>
       <path id="DejaVuSans-74" d="M 1172 4494 
L 1172 3500 
L 2356 3500 
L 2356 3053 
L 1172 3053 
L 1172 1153 
Q 1172 725 1289 603 
Q 1406 481 1766 481 
L 2356 481 
L 2356 0 
L 1766 0 
Q 1100 0 847 248 
Q 594 497 594 1153 
L 594 3053 
L 172 3053 
L 172 3500 
L 594 3500 
L 594 4494 
L 1172 4494 
z
" transform="scale(0.015625)"/>
       <path id="DejaVuSans-52" d="M 2841 2188 
Q 3044 2119 3236 1894 
Q 3428 1669 3622 1275 
L 4263 0 
L 3584 0 
L 2988 1197 
Q 2756 1666 2539 1819 
Q 2322 1972 1947 1972 
L 1259 1972 
L 1259 0 
L 628 0 
L 628 4666 
L 2053 4666 
Q 2853 4666 3247 4331 
Q 3641 3997 3641 3322 
Q 3641 2881 3436 2590 
Q 3231 2300 2841 2188 
z
M 1259 4147 
L 1259 2491 
L 2053 2491 
Q 2509 2491 2742 2702 
Q 2975 2913 2975 3322 
Q 2975 3731 2742 3939 
Q 2509 4147 2053 4147 
L 1259 4147 
z
" transform="scale(0.015625)"/>
      </defs>
      <use xlink:href="#DejaVuSans-48"/>
      <use xlink:href="#DejaVuSans-65" transform="translate(75.195312 0)"/>
      <use xlink:href="#DejaVuSans-61" transform="translate(136.71875 0)"/>
      <use xlink:href="#DejaVuSans-72" transform="translate(197.998047 0)"/>
      <use xlink:href="#DejaVuSans-74" transform="translate(239.111328 0)"/>
      <use xlink:href="#DejaVuSans-20" transform="translate(278.320312 0)"/>
      <use xlink:href="#DejaVuSans-52" transform="translate(310.107422 0)"/>
      <use xlink:href="#DejaVuSans-61" transform="translate(377.339844 0)"/>
      <use xlink:href="#DejaVuSans-74" transform="translate(438.619141 0)"/>
      <use xlink:href="#DejaVuSans-65" transform="translate(477.828125 0)"/>
     </g>
    </g>
   </g>
   <g id="line2d_33">
    <path d="M 77.401989 152.786615 
L 79.465471 143.998559 
L 81.528953 248.055359 
L 83.592435 167.640762 
L 85.655918 232.190197 
L 87.7194 243.42802 
L 89.782882 194.899288 
L 91.846365 156.130742 
L 93.909847 127.161267 
L 95.973329 161.691326 
L 98.036811 130.116542 
L 100.100294 181.950516 
L 102.163776 162.624571 
L 104.227258 176.117736 
L 106.290741 190.50526 
L 108.354223 200.809839 
L 110.417705 182.339368 
L 112.481187 178.450848 
L 114.54467 227.290661 
L 116.608152 223.402141 
L 118.671634 193.693847 
L 120.735117 203.88177 
L 124.862081 155.236382 
L 126.925563 150.95901 
L 128.989046 193.499421 
L 131.052528 169.468366 
L 133.11601 226.357417 
L 135.179492 208.236912 
L 137.242975 263.220588 
L 139.306457 214.458545 
L 141.369939 161.885752 
L 143.433422 220.835718 
L 145.496904 208.081372 
L 147.560386 178.256422 
L 149.623868 151.464518 
L 151.687351 170.518267 
L 153.750833 172.19033 
L 155.814315 148.159276 
L 157.877798 143.220855 
L 159.94128 147.07049 
L 162.004762 135.638241 
L 164.068244 240.200548 
L 166.131727 267.692386 
L 168.195209 205.631604 
L 170.258691 185.877921 
L 172.322174 156.286283 
L 174.385656 181.289468 
L 176.449138 259.565379 
L 178.51262 251.943879 
L 180.576103 218.502606 
L 182.639585 222.741093 
L 184.703067 172.151445 
L 186.766549 225.657483 
L 188.830032 237.867436 
L 190.893514 183.078187 
L 192.956996 154.069826 
L 195.020479 145.359541 
L 197.083961 130.155427 
L 199.147443 157.297298 
L 201.210925 164.996568 
L 203.274408 226.901809 
L 205.33789 226.357417 
L 207.401372 191.749587 
L 209.464855 193.577191 
L 211.528337 184.439169 
L 213.591819 159.785951 
L 215.655301 165.813157 
L 217.718784 155.353038 
L 219.782266 155.197497 
L 221.845748 194.588207 
L 223.909231 187.627755 
L 225.972713 170.479381 
L 228.036195 202.054165 
L 230.099677 202.170821 
L 232.16316 194.938173 
L 234.226642 212.125433 
L 236.290124 206.214882 
L 238.353607 172.151445 
L 240.417089 153.758745 
L 242.480571 171.179315 
L 244.544053 183.661465 
L 246.607536 148.664783 
L 248.671018 181.445008 
L 250.7345 154.380908 
L 252.797982 216.480575 
L 254.861465 185.994577 
L 256.924947 194.510436 
L 258.988429 294.834257 
L 261.051912 221.535651 
L 263.115394 218.074869 
L 265.178876 226.862924 
L 267.242358 191.555161 
L 269.305841 204.270622 
L 271.369323 157.375068 
L 273.432805 167.135254 
L 275.496288 148.159276 
L 277.55977 159.008247 
L 279.623252 239.733926 
L 281.686734 205.981571 
L 283.750217 152.164451 
L 285.813699 141.548791 
L 287.877181 134.860536 
L 289.940664 132.488539 
L 292.004146 254.549188 
L 294.067628 201.354232 
L 296.13111 198.943349 
L 298.194593 165.30765 
L 300.258075 135.716011 
L 302.321557 151.464518 
L 304.385039 158.969362 
L 306.448522 160.291459 
L 308.512004 141.587676 
L 310.575486 138.787942 
L 312.638969 174.05682 
L 314.702451 174.329016 
L 316.765933 193.810503 
L 318.829415 181.211697 
L 320.892898 153.642089 
L 322.95638 189.222049 
L 325.019862 211.269958 
L 327.083345 130.660935 
L 329.146827 141.23771 
L 331.210309 146.720523 
L 333.273791 147.925964 
L 335.337274 121.795109 
L 337.400756 150.570158 
L 339.464238 149.831339 
L 341.527721 151.153436 
L 343.591203 136.493715 
L 345.654685 148.820324 
L 347.718167 176.623243 
L 349.78165 183.194842 
L 351.845132 218.347065 
L 353.908614 180.628419 
L 355.972096 197.893449 
L 358.035579 191.205194 
L 360.099061 232.695704 
L 362.162543 218.697032 
L 364.226026 198.515612 
L 366.289508 202.209706 
L 368.35299 168.612892 
L 370.416472 154.76976 
L 372.479955 152.708844 
L 374.543437 106.863191 
L 376.606919 165.113224 
L 378.670402 140.187809 
L 380.733884 143.570822 
L 382.797366 178.023111 
L 384.860848 182.456024 
L 386.924331 143.531937 
L 388.987813 142.754232 
L 391.051295 176.273276 
L 393.114778 182.767105 
L 395.17826 167.951843 
L 397.241742 160.641425 
L 399.305224 160.019262 
L 401.368707 147.342686 
L 403.432189 212.669825 
L 405.495671 218.852573 
L 407.559154 208.470224 
L 409.622636 164.49106 
L 411.686118 207.575864 
L 413.7496 198.437842 
L 415.813083 200.382102 
L 417.876565 191.360735 
L 422.003529 166.785287 
L 424.067012 149.481372 
L 426.130494 195.599222 
L 428.193976 152.981041 
L 430.257459 171.490397 
L 432.320941 169.27394 
L 434.384423 200.382102 
L 436.447905 215.702871 
L 438.511388 185.216873 
L 440.57487 148.12039 
L 442.638352 153.447663 
L 444.701835 174.095705 
L 446.765317 219.28031 
L 448.828799 224.724238 
L 450.892281 155.508579 
L 452.955764 122.10619 
L 455.019246 145.242885 
L 457.082728 133.227358 
L 459.146211 134.082832 
L 461.209693 114.056953 
L 463.273175 153.019926 
L 465.336657 127.239037 
L 467.40014 135.171618 
L 469.463622 181.328353 
L 471.527104 147.031605 
L 473.590586 167.018598 
L 475.654069 169.390596 
L 477.717551 213.097563 
L 479.781033 193.616077 
L 481.844516 185.761266 
L 483.907998 156.558479 
L 485.97148 209.092387 
L 488.034962 156.908446 
L 490.098445 151.347862 
L 492.161927 126.539103 
L 494.225409 148.509242 
L 496.288892 201.393117 
L 498.352374 196.376926 
L 500.415856 206.681504 
L 502.479338 218.735917 
L 504.542821 193.732732 
L 506.606303 255.132466 
L 508.669785 205.981571 
L 510.733268 256.493448 
L 512.79675 169.351711 
L 514.860232 140.382235 
L 516.923714 147.187145 
L 518.987197 183.039302 
L 521.050679 140.732202 
L 523.114161 132.410769 
L 525.177643 178.450848 
L 527.241126 162.274604 
L 529.304608 249.882964 
L 531.36809 155.469693 
L 533.431573 261.74295 
L 535.495055 127.589004 
L 537.558537 120.278586 
L 539.622019 272.553036 
L 541.685502 203.920655 
L 543.748984 225.268631 
L 545.812466 144.465181 
L 547.875949 126.189136 
L 549.939431 177.94534 
L 552.002913 157.68615 
L 554.066395 141.704332 
L 556.129878 115.962328 
L 558.19336 152.319992 
L 560.256842 171.295971 
L 562.320325 151.308977 
L 564.383807 126.966841 
L 566.447289 222.430011 
L 568.510771 145.903934 
L 570.574254 211.464384 
L 572.637736 196.065844 
L 574.701218 184.283628 
L 576.764701 145.398426 
L 578.828183 207.420323 
L 580.891665 162.702341 
L 582.955147 193.616077 
L 585.01863 166.007583 
L 587.082112 213.253103 
L 589.145594 171.101545 
L 591.209076 181.83386 
L 593.272559 163.868897 
L 595.336041 157.413954 
L 597.399523 156.71402 
L 599.463006 168.574007 
L 601.526488 181.483894 
L 603.58997 181.911631 
L 605.653452 221.846733 
L 607.716935 208.509109 
L 609.780417 165.774272 
L 611.843899 184.711365 
L 615.970864 172.073675 
L 618.034346 162.663456 
L 620.097828 169.235055 
L 622.161311 150.609043 
L 624.224793 191.049653 
L 626.288275 181.367238 
L 628.351758 184.75025 
L 630.41524 145.204 
L 632.478722 185.800151 
L 634.542204 141.198824 
L 636.605687 140.26558 
L 638.669169 205.164981 
L 640.732651 156.597364 
L 642.796133 180.239567 
L 644.859616 120.317471 
L 646.923098 166.629746 
L 648.98658 151.270092 
L 651.050063 184.166972 
L 653.113545 149.947995 
L 655.177027 164.49106 
L 657.240509 163.402275 
L 659.303992 182.378253 
L 661.367474 189.766442 
L 663.430956 210.958877 
L 665.494439 186.111233 
L 667.557921 243.894643 
L 669.621403 273.952904 
L 671.684885 214.030808 
L 673.748368 164.41329 
L 675.81185 159.474869 
L 677.875332 191.827357 
L 679.938815 186.655625 
L 682.002297 195.404796 
L 684.065779 207.964716 
L 686.129261 206.487078 
L 686.129261 206.487078 
" clip-path="url(#paab5a021cc)" style="fill: none; stroke: #000000; stroke-width: 1.5; stroke-linecap: square"/>
   </g>
   <g id="line2d_34">
    <path d="M 77.401989 240.946677 
L 79.465471 229.980168 
L 81.528953 298.777166 
L 83.592435 264.895694 
L 85.655918 282.518001 
L 87.7194 292.491576 
L 89.782882 265.60424 
L 91.846365 226.317345 
L 93.909847 204.224228 
L 95.973329 233.092821 
L 98.036811 203.479472 
L 100.100294 233.237015 
L 102.163776 231.827055 
L 104.227258 225.492781 
L 106.290741 244.215604 
L 108.354223 245.762477 
L 112.481187 224.192564 
L 114.54467 247.468956 
L 116.608152 261.959968 
L 118.671634 251.029933 
L 120.735117 215.722108 
L 122.798599 220.270026 
L 124.862081 204.600991 
L 126.925563 202.51088 
L 128.989046 200.223079 
L 131.052528 197.729757 
L 133.11601 209.132471 
L 135.179492 213.877348 
L 137.242975 249.047188 
L 139.306457 233.362394 
L 141.369939 209.990631 
L 143.433422 231.955487 
L 145.496904 237.001712 
L 147.560386 193.733746 
L 149.623868 208.098161 
L 151.687351 182.466454 
L 153.750833 223.99261 
L 155.814315 186.776508 
L 157.877798 194.891677 
L 159.94128 191.900555 
L 162.004762 211.239453 
L 166.131727 287.787768 
L 168.195209 261.763174 
L 170.258691 255.935727 
L 172.322174 221.442602 
L 174.385656 213.693943 
L 176.449138 272.995034 
L 178.51262 277.559318 
L 180.576103 254.520637 
L 184.703067 232.260263 
L 186.766549 258.812529 
L 188.830032 243.050098 
L 190.893514 222.826235 
L 192.956996 222.624193 
L 195.020479 217.680537 
L 197.083961 217.407623 
L 199.147443 227.210307 
L 201.210925 223.675962 
L 203.274408 275.784633 
L 205.33789 272.412902 
L 207.401372 272.438923 
L 209.464855 260.071321 
L 211.528337 235.909575 
L 213.591819 220.716228 
L 215.655301 239.473537 
L 217.718784 225.822672 
L 219.782266 230.919492 
L 221.845748 260.748033 
L 223.909231 236.443351 
L 225.972713 231.417232 
L 228.036195 261.945971 
L 230.099677 267.084835 
L 232.16316 276.60471 
L 234.226642 306.973099 
L 236.290124 303.882895 
L 238.353607 288.72133 
L 240.417089 268.409154 
L 242.480571 289.521204 
L 244.544053 295.220264 
L 246.607536 279.867785 
L 248.671018 269.511499 
L 250.7345 248.506939 
L 252.797982 300.478018 
L 254.861465 278.978325 
L 256.924947 289.993553 
L 258.988429 325.19264 
L 261.051912 294.234826 
L 263.115394 292.816782 
L 265.178876 298.327746 
L 267.242358 275.111322 
L 269.305841 263.713716 
L 271.369323 262.730402 
L 273.432805 270.184332 
L 275.496288 241.999762 
L 277.55977 273.200549 
L 279.623252 315.278954 
L 281.686734 295.591804 
L 283.750217 204.708616 
L 285.813699 220.847888 
L 287.877181 197.929061 
L 289.940664 208.270046 
L 292.004146 308.088655 
L 294.067628 254.898879 
L 296.13111 258.865068 
L 298.194593 253.618573 
L 300.258075 268.486958 
L 302.321557 255.448165 
L 304.385039 247.740169 
L 306.448522 229.014499 
L 308.512004 219.131985 
L 310.575486 207.579287 
L 314.702451 244.455559 
L 316.765933 239.010493 
L 318.829415 240.046811 
L 320.892898 192.934585 
L 322.95638 267.31058 
L 325.019862 277.013319 
L 327.083345 233.473805 
L 329.146827 240.886681 
L 331.210309 242.692398 
L 333.273791 228.789905 
L 335.337274 220.561368 
L 337.400756 233.178293 
L 339.464238 228.399513 
L 341.527721 229.413191 
L 343.591203 224.815531 
L 345.654685 252.868225 
L 347.718167 208.006173 
L 349.78165 217.566852 
L 351.845132 223.535634 
L 353.908614 225.183978 
L 355.972096 224.814165 
L 358.035579 226.591935 
L 360.099061 249.083176 
L 362.162543 240.458309 
L 364.226026 204.136267 
L 366.289508 218.292862 
L 368.35299 190.718284 
L 370.416472 190.746123 
L 372.479955 166.195488 
L 374.543437 152.872992 
L 376.606919 182.600098 
L 378.670402 179.532249 
L 380.733884 192.358575 
L 384.860848 171.401061 
L 386.924331 162.251462 
L 388.987813 164.098523 
L 393.114778 198.280502 
L 395.17826 175.508147 
L 397.241742 161.218652 
L 399.305224 194.513567 
L 401.368707 186.753576 
L 403.432189 195.828553 
L 405.495671 207.793109 
L 407.559154 215.35081 
L 409.622636 204.604604 
L 411.686118 195.958264 
L 413.7496 205.913375 
L 415.813083 212.193765 
L 417.876565 202.397676 
L 419.940047 184.753881 
L 422.003529 202.560374 
L 424.067012 201.536508 
L 426.130494 222.713881 
L 428.193976 197.777894 
L 430.257459 206.178509 
L 432.320941 212.892423 
L 434.384423 233.6599 
L 436.447905 240.437376 
L 438.511388 238.573231 
L 440.57487 184.516058 
L 442.638352 176.894402 
L 444.701835 189.90328 
L 446.765317 213.482487 
L 448.828799 220.415349 
L 450.892281 154.759946 
L 452.955764 157.803591 
L 455.019246 185.453757 
L 457.082728 167.953347 
L 459.146211 159.465557 
L 461.209693 165.329103 
L 463.273175 178.195422 
L 465.336657 169.003064 
L 467.40014 163.305208 
L 469.463622 165.589661 
L 471.527104 177.325983 
L 473.590586 206.604566 
L 475.654069 203.874106 
L 477.717551 241.837694 
L 479.781033 234.126276 
L 481.844516 245.14386 
L 483.907998 221.832834 
L 485.97148 234.00311 
L 488.034962 220.45942 
L 490.098445 212.411916 
L 492.161927 202.692615 
L 494.225409 213.93647 
L 496.288892 263.795921 
L 498.352374 247.200341 
L 500.415856 262.60132 
L 502.479338 270.180392 
L 504.542821 228.576203 
L 506.606303 283.924168 
L 508.669785 239.743542 
L 510.733268 278.585991 
L 512.79675 212.979082 
L 514.860232 215.886046 
L 516.923714 195.160527 
L 518.987197 252.720589 
L 521.050679 217.708712 
L 523.114161 212.613401 
L 525.177643 237.578921 
L 527.241126 228.349884 
L 529.304608 299.206035 
L 531.36809 242.559278 
L 533.431573 339.838125 
L 535.495055 227.989866 
L 537.558537 252.44785 
L 539.622019 268.600657 
L 541.685502 293.150569 
L 543.748984 282.398827 
L 545.812466 236.114355 
L 547.875949 251.986023 
L 549.939431 218.460209 
L 552.002913 204.077576 
L 554.066395 197.237559 
L 556.129878 204.013679 
L 558.19336 263.671684 
L 560.256842 245.344114 
L 562.320325 247.250413 
L 564.383807 248.949481 
L 566.447289 287.507254 
L 568.510771 229.431794 
L 570.574254 274.757965 
L 572.637736 270.615463 
L 574.701218 239.47153 
L 576.764701 228.866848 
L 578.828183 296.54929 
L 580.891665 248.160894 
L 582.955147 260.321805 
L 585.01863 242.57295 
L 587.082112 282.908196 
L 589.145594 255.48894 
L 591.209076 237.017062 
L 593.272559 241.8844 
L 595.336041 239.69498 
L 597.399523 237.217995 
L 599.463006 267.1432 
L 601.526488 255.365399 
L 603.58997 281.917032 
L 605.653452 317.896977 
L 607.716935 287.581784 
L 609.780417 279.227697 
L 611.843899 281.854268 
L 613.907382 290.466454 
L 615.970864 263.51023 
L 618.034346 267.067203 
L 620.097828 286.149535 
L 622.161311 274.501816 
L 624.224793 265.289471 
L 626.288275 268.922306 
L 628.351758 276.960098 
L 630.41524 280.39157 
L 632.478722 257.630379 
L 634.542204 255.97524 
L 636.605687 257.368568 
L 638.669169 263.284777 
L 640.732651 257.818932 
L 642.796133 254.79201 
L 644.859616 247.651179 
L 646.923098 254.134916 
L 648.98658 261.479449 
L 651.050063 274.434532 
L 653.113545 293.097691 
L 655.177027 289.535756 
L 657.240509 293.841069 
L 659.303992 266.588174 
L 661.367474 271.345039 
L 663.430956 272.606179 
L 665.494439 276.673347 
L 667.557921 309.357471 
L 669.621403 336.961877 
L 671.684885 244.145273 
L 673.748368 254.756919 
L 675.81185 237.139743 
L 677.875332 242.687387 
L 679.938815 251.876034 
L 682.002297 261.702877 
L 684.065779 275.200884 
L 686.129261 296.396394 
L 686.129261 296.396394 
" clip-path="url(#paab5a021cc)" style="fill: none; stroke-dasharray: 3.7,1.6; stroke-dashoffset: 0; stroke: #4fa8c8"/>
   </g>
   <g id="line2d_35">
    <path d="M 77.401989 93.182909 
L 79.465471 82.994105 
L 81.528953 153.348417 
L 83.592435 121.598116 
L 85.655918 141.787305 
L 87.7194 154.714942 
L 89.782882 131.062514 
L 91.846365 95.331922 
L 93.909847 76.980206 
L 95.973329 109.713185 
L 98.036811 84.141614 
L 100.100294 118.055426 
L 102.163776 120.973106 
L 104.227258 119.032652 
L 106.290741 142.318459 
L 108.354223 148.530086 
L 112.481187 136.516277 
L 114.54467 164.709776 
L 116.608152 184.024808 
L 118.671634 178.164441 
L 120.735117 147.795943 
L 122.798599 157.318132 
L 124.862081 146.810845 
L 126.925563 149.794425 
L 131.052528 155.22824 
L 133.11601 171.982528 
L 135.179492 179.689851 
L 137.242975 218.394526 
L 139.306457 204.147529 
L 141.369939 182.859547 
L 143.433422 204.594993 
L 145.496904 210.350069 
L 147.560386 166.06121 
L 149.623868 179.877961 
L 151.687351 151.098777 
L 153.750833 190.90443 
L 155.814315 149.785738 
L 157.877798 153.321743 
L 159.94128 144.257458 
L 162.004762 158.169384 
L 166.131727 220.967875 
L 168.195209 189.214529 
L 170.258691 177.836079 
L 172.322174 137.85392 
L 174.385656 125.036647 
L 176.449138 179.644941 
L 178.51262 179.469056 
L 180.576103 152.072086 
L 184.703067 121.691201 
L 186.766549 144.615909 
L 188.830032 125.292738 
L 190.893514 101.242453 
L 192.956996 97.865627 
L 195.020479 89.981248 
L 197.083961 86.916843 
L 199.147443 94.020584 
L 201.210925 88.012972 
L 203.274408 137.774827 
L 205.33789 132.153219 
L 207.401372 130.048686 
L 209.464855 115.74711 
L 211.528337 89.792197 
L 213.591819 72.87471 
L 215.655301 90.067603 
L 217.718784 75.006314 
L 219.782266 78.800067 
L 221.845748 107.450983 
L 223.909231 82.052889 
L 225.972713 75.967528 
L 228.036195 105.599691 
L 230.099677 109.941505 
L 232.16316 118.784525 
L 234.226642 148.608482 
L 236.290124 145.031713 
L 238.353607 129.469925 
L 240.417089 108.753189 
L 242.480571 129.569346 
L 244.544053 135.041143 
L 246.607536 119.596022 
L 248.671018 109.085159 
L 250.7345 88.263629 
L 252.797982 140.480194 
L 254.861465 119.338876 
L 256.924947 130.76271 
L 258.988429 166.43827 
L 261.051912 135.823918 
L 263.115394 135.070213 
L 265.178876 141.326301 
L 267.242358 118.917973 
L 269.305841 108.404415 
L 271.369323 108.3254 
L 273.432805 116.700192 
L 275.496288 89.514527 
L 277.55977 121.825319 
L 279.623252 164.9493 
L 281.686734 146.5688 
L 283.750217 56.997942 
L 285.813699 74.479219 
L 287.877181 53.033862 
L 289.940664 64.895454 
L 292.004146 166.314457 
L 294.067628 114.72198 
L 296.13111 120.346035 
L 298.194593 116.848432 
L 300.258075 133.464783 
L 302.321557 121.737397 
L 304.385039 115.755654 
L 306.448522 98.922751 
L 308.512004 91.088741 
L 310.575486 81.584502 
L 314.702451 122.762936 
L 316.765933 119.531453 
L 318.829415 122.794707 
L 320.892898 78.033878 
L 322.95638 154.696211 
L 325.019862 166.696317 
L 327.083345 125.578719 
L 329.146827 135.03759 
L 331.210309 138.955386 
L 333.273791 127.237167 
L 335.337274 121.411176 
L 337.400756 136.184696 
L 339.464238 133.822768 
L 341.527721 137.319608 
L 343.591203 135.220168 
L 345.654685 165.625232 
L 347.718167 122.209724 
L 349.78165 134.016839 
L 351.845132 142.300357 
L 353.908614 145.967451 
L 355.972096 148.003395 
L 358.035579 152.160216 
L 360.099061 177.146438 
L 362.162543 170.86855 
L 364.226026 136.99638 
L 366.289508 153.438278 
L 368.35299 128.331495 
L 370.416472 130.93655 
L 372.479955 109.019932 
L 374.543437 98.254007 
L 376.606919 130.513897 
L 378.670402 130.132027 
L 380.733884 145.59037 
L 384.860848 128.695998 
L 386.924331 120.902708 
L 388.987813 124.613207 
L 393.114778 162.460092 
L 395.17826 141.643748 
L 397.241742 129.245273 
L 399.305224 164.362865 
L 401.368707 157.877768 
L 403.432189 167.646263 
L 405.495671 179.704184 
L 407.559154 187.039308 
L 409.622636 176.459504 
L 411.686118 167.170121 
L 413.7496 176.050424 
L 415.813083 181.688989 
L 417.876565 171.372541 
L 419.940047 153.25076 
L 422.003529 170.547413 
L 424.067012 168.399968 
L 426.130494 187.622926 
L 428.193976 161.431595 
L 430.257459 167.803314 
L 432.320941 172.826569 
L 434.384423 191.331628 
L 436.447905 196.172902 
L 438.511388 192.596445 
L 440.57487 135.876056 
L 442.638352 126.096424 
L 444.701835 137.171368 
L 446.765317 158.770384 
L 448.828799 162.848036 
L 450.892281 93.988588 
L 452.955764 93.5408 
L 455.019246 118.281099 
L 457.082728 97.913056 
L 459.146211 86.695217 
L 461.209693 89.799021 
L 463.273175 99.955886 
L 465.336657 88.127181 
L 467.40014 79.979594 
L 469.463622 79.77669 
L 471.527104 87.519165 
L 473.590586 114.032883 
L 475.654069 108.671168 
L 477.717551 144.027651 
L 479.781033 133.717135 
L 481.844516 142.284352 
L 483.907998 116.594816 
L 485.97148 126.422971 
L 488.034962 110.461832 
L 490.098445 100.216962 
L 492.161927 88.372192 
L 494.225409 97.481938 
L 496.288892 145.322362 
L 498.352374 126.775063 
L 500.415856 140.260857 
L 502.479338 145.990545 
L 504.542821 102.574104 
L 506.606303 156.078124 
L 508.669785 110.054037 
L 510.733268 147.141307 
L 512.79675 79.707761 
L 514.860232 81.018315 
L 516.923714 58.79674 
L 518.987197 114.875005 
L 521.050679 78.476766 
L 523.114161 72.031657 
L 525.177643 95.689501 
L 527.241126 85.195222 
L 529.304608 154.844908 
L 531.36809 96.993546 
L 533.431573 193.13899 
L 535.495055 80.220476 
L 537.558537 103.591729 
L 539.622019 118.413488 
L 541.685502 140.766654 
L 543.748984 128.732317 
L 545.812466 81.190456 
L 547.875949 95.861711 
L 549.939431 61.006565 
L 552.002913 45.415098 
L 554.066395 37.438125 
L 556.129878 43.152851 
L 558.19336 101.834404 
L 560.256842 82.504926 
L 562.320325 83.516768 
L 564.383807 84.347818 
L 566.447289 121.975103 
L 568.510771 63.104106 
L 570.574254 107.708186 
L 572.637736 102.838786 
L 574.701218 71.033093 
L 576.764701 59.743571 
L 578.828183 126.855668 
L 580.891665 77.92835 
L 582.955147 89.593631 
L 585.01863 71.341345 
L 587.082112 111.235478 
L 589.145594 83.391101 
L 591.209076 64.563898 
L 593.272559 69.015899 
L 595.336041 66.524462 
L 597.399523 63.789724 
L 599.463006 93.486576 
L 601.526488 81.498408 
L 603.58997 107.869085 
L 605.653452 143.7009 
L 607.716935 113.281504 
L 609.780417 104.857004 
L 611.843899 107.377835 
L 613.907382 115.975969 
L 615.970864 88.980111 
L 618.034346 92.601949 
L 620.097828 111.73613 
L 622.161311 100.114802 
L 624.224793 90.922068 
L 626.288275 94.7149 
L 628.351758 102.981696 
L 630.41524 106.657483 
L 632.478722 83.955553 
L 634.542204 82.569437 
L 636.605687 84.203316 
L 638.669169 90.375845 
L 640.732651 85.206498 
L 642.796133 82.56427 
L 644.859616 75.84911 
L 646.923098 82.637631 
L 648.98658 90.498626 
L 651.050063 103.906593 
L 653.113545 123.131692 
L 655.177027 119.85735 
L 657.240509 124.612343 
L 659.303992 97.79854 
L 661.367474 103.245502 
L 663.430956 105.215907 
L 665.494439 109.939269 
L 667.557921 143.370048 
L 669.621403 171.704686 
L 671.684885 79.634921 
L 673.748368 90.819341 
L 675.81185 74.052346 
L 677.875332 80.492841 
L 679.938815 90.475446 
L 682.002297 101.197029 
L 684.065779 115.622288 
L 686.129261 137.776411 
L 686.129261 137.776411 
" clip-path="url(#paab5a021cc)" style="fill: none; stroke-dasharray: 3.7,1.6; stroke-dashoffset: 0; stroke: #4fa8c8"/>
   </g>
   <g id="patch_3">
    <path d="M 46.965625 354.958125 
L 46.965625 22.318125 
" style="fill: none; stroke: #000000; stroke-width: 0.8; stroke-linejoin: miter; stroke-linecap: square"/>
   </g>
   <g id="patch_4">
    <path d="M 716.565625 354.958125 
L 716.565625 22.318125 
" style="fill: none; stroke: #000000; stroke-width: 0.8; stroke-linejoin: miter; stroke-linecap: square"/>
   </g>
   <g id="patch_5">
    <path d="M 46.965625 354.958125 
L 716.565625 354.958125 
" style="fill: none; stroke: #000000; stroke-width: 0.8; stroke-linejoin: miter; stroke-linecap: square"/>
   </g>
   <g id="patch_6">
    <path d="M 46.965625 22.318125 
L 716.565625 22.318125 
" style="fill: none; stroke: #000000; stroke-width: 0.8; stroke-linejoin: miter; stroke-linecap: square"/>
   </g>
   <g id="text_19">
    <!-- Prediction Intervals Evolution -->
    <g transform="translate(294.068125 16.318125) scale(0.12 -0.12)">
     <defs>
      <path id="DejaVuSans-50" d="M 1259 4147 
L 1259 2394 
L 2053 2394 
Q 2494 2394 2734 2622 
Q 2975 2850 2975 3272 
Q 2975 3691 2734 3919 
Q 2494 4147 2053 4147 
L 1259 4147 
z
M 628 4666 
L 2053 4666 
Q 2838 4666 3239 4311 
Q 3641 3956 3641 3272 
Q 3641 2581 3239 2228 
Q 2838 1875 2053 1875 
L 1259 1875 
L 1259 0 
L 628 0 
L 628 4666 
z
" transform="scale(0.015625)"/>
      <path id="DejaVuSans-64" d="M 2906 2969 
L 2906 4863 
L 3481 4863 
L 3481 0 
L 2906 0 
L 2906 525 
Q 2725 213 2448 61 
Q 2172 -91 1784 -91 
Q 1150 -91 751 415 
Q 353 922 353 1747 
Q 353 2572 751 3078 
Q 1150 3584 1784 3584 
Q 2172 3584 2448 3432 
Q 2725 3281 2906 2969 
z
M 947 1747 
Q 947 1113 1208 752 
Q 1469 391 1925 391 
Q 2381 391 2643 752 
Q 2906 1113 2906 1747 
Q 2906 2381 2643 2742 
Q 2381 3103 1925 3103 
Q 1469 3103 1208 2742 
Q 947 2381 947 1747 
z
" transform="scale(0.015625)"/>
      <path id="DejaVuSans-63" d="M 3122 3366 
L 3122 2828 
Q 2878 2963 2633 3030 
Q 2388 3097 2138 3097 
Q 1578 3097 1268 2742 
Q 959 2388 959 1747 
Q 959 1106 1268 751 
Q 1578 397 2138 397 
Q 2388 397 2633 464 
Q 2878 531 3122 666 
L 3122 134 
Q 2881 22 2623 -34 
Q 2366 -91 2075 -91 
Q 1284 -91 818 406 
Q 353 903 353 1747 
Q 353 2603 823 3093 
Q 1294 3584 2113 3584 
Q 2378 3584 2631 3529 
Q 2884 3475 3122 3366 
z
" transform="scale(0.015625)"/>
      <path id="DejaVuSans-49" d="M 628 4666 
L 1259 4666 
L 1259 0 
L 628 0 
L 628 4666 
z
" transform="scale(0.015625)"/>
      <path id="DejaVuSans-76" d="M 191 3500 
L 800 3500 
L 1894 563 
L 2988 3500 
L 3597 3500 
L 2284 0 
L 1503 0 
L 191 3500 
z
" transform="scale(0.015625)"/>
      <path id="DejaVuSans-6c" d="M 603 4863 
L 1178 4863 
L 1178 0 
L 603 0 
L 603 4863 
z
" transform="scale(0.015625)"/>
      <path id="DejaVuSans-45" d="M 628 4666 
L 3578 4666 
L 3578 4134 
L 1259 4134 
L 1259 2753 
L 3481 2753 
L 3481 2222 
L 1259 2222 
L 1259 531 
L 3634 531 
L 3634 0 
L 628 0 
L 628 4666 
z
" transform="scale(0.015625)"/>
      <path id="DejaVuSans-75" d="M 544 1381 
L 544 3500 
L 1119 3500 
L 1119 1403 
Q 1119 906 1312 657 
Q 1506 409 1894 409 
Q 2359 409 2629 706 
Q 2900 1003 2900 1516 
L 2900 3500 
L 3475 3500 
L 3475 0 
L 2900 0 
L 2900 538 
Q 2691 219 2414 64 
Q 2138 -91 1772 -91 
Q 1169 -91 856 284 
Q 544 659 544 1381 
z
M 1991 3584 
L 1991 3584 
z
" transform="scale(0.015625)"/>
     </defs>
     <use xlink:href="#DejaVuSans-50"/>
     <use xlink:href="#DejaVuSans-72" transform="translate(58.552734 0)"/>
     <use xlink:href="#DejaVuSans-65" transform="translate(97.416016 0)"/>
     <use xlink:href="#DejaVuSans-64" transform="translate(158.939453 0)"/>
     <use xlink:href="#DejaVuSans-69" transform="translate(222.416016 0)"/>
     <use xlink:href="#DejaVuSans-63" transform="translate(250.199219 0)"/>
     <use xlink:href="#DejaVuSans-74" transform="translate(305.179688 0)"/>
     <use xlink:href="#DejaVuSans-69" transform="translate(344.388672 0)"/>
     <use xlink:href="#DejaVuSans-6f" transform="translate(372.171875 0)"/>
     <use xlink:href="#DejaVuSans-6e" transform="translate(433.353516 0)"/>
     <use xlink:href="#DejaVuSans-20" transform="translate(496.732422 0)"/>
     <use xlink:href="#DejaVuSans-49" transform="translate(528.519531 0)"/>
     <use xlink:href="#DejaVuSans-6e" transform="translate(558.011719 0)"/>
     <use xlink:href="#DejaVuSans-74" transform="translate(621.390625 0)"/>
     <use xlink:href="#DejaVuSans-65" transform="translate(660.599609 0)"/>
     <use xlink:href="#DejaVuSans-72" transform="translate(722.123047 0)"/>
     <use xlink:href="#DejaVuSans-76" transform="translate(763.236328 0)"/>
     <use xlink:href="#DejaVuSans-61" transform="translate(822.416016 0)"/>
     <use xlink:href="#DejaVuSans-6c" transform="translate(883.695312 0)"/>
     <use xlink:href="#DejaVuSans-73" transform="translate(911.478516 0)"/>
     <use xlink:href="#DejaVuSans-20" transform="translate(963.578125 0)"/>
     <use xlink:href="#DejaVuSans-45" transform="translate(995.365234 0)"/>
     <use xlink:href="#DejaVuSans-76" transform="translate(1058.548828 0)"/>
     <use xlink:href="#DejaVuSans-6f" transform="translate(1117.728516 0)"/>
     <use xlink:href="#DejaVuSans-6c" transform="translate(1178.910156 0)"/>
     <use xlink:href="#DejaVuSans-75" transform="translate(1206.693359 0)"/>
     <use xlink:href="#DejaVuSans-74" transform="translate(1270.072266 0)"/>
     <use xlink:href="#DejaVuSans-69" transform="translate(1309.28125 0)"/>
     <use xlink:href="#DejaVuSans-6f" transform="translate(1337.064453 0)"/>
     <use xlink:href="#DejaVuSans-6e" transform="translate(1398.246094 0)"/>
    </g>
   </g>
   <g id="legend_1">
    <g id="patch_7">
     <path d="M 53.965625 74.3525 
L 208.632813 74.3525 
Q 210.632813 74.3525 210.632813 72.3525 
L 210.632813 29.318125 
Q 210.632813 27.318125 208.632813 27.318125 
L 53.965625 27.318125 
Q 51.965625 27.318125 51.965625 29.318125 
L 51.965625 72.3525 
Q 51.965625 74.3525 53.965625 74.3525 
z
" style="fill: #ffffff; opacity: 0.8; stroke: #cccccc; stroke-linejoin: miter"/>
    </g>
    <g id="line2d_36">
     <path d="M 55.965625 35.416562 
L 65.965625 35.416562 
L 75.965625 35.416562 
" style="fill: none; stroke: #000000; stroke-width: 1.5; stroke-linecap: square"/>
    </g>
    <g id="text_20">
     <!-- Ground truth -->
     <g transform="translate(83.965625 38.916562) scale(0.1 -0.1)">
      <defs>
       <path id="DejaVuSans-47" d="M 3809 666 
L 3809 1919 
L 2778 1919 
L 2778 2438 
L 4434 2438 
L 4434 434 
Q 4069 175 3628 42 
Q 3188 -91 2688 -91 
Q 1594 -91 976 548 
Q 359 1188 359 2328 
Q 359 3472 976 4111 
Q 1594 4750 2688 4750 
Q 3144 4750 3555 4637 
Q 3966 4525 4313 4306 
L 4313 3634 
Q 3963 3931 3569 4081 
Q 3175 4231 2741 4231 
Q 1884 4231 1454 3753 
Q 1025 3275 1025 2328 
Q 1025 1384 1454 906 
Q 1884 428 2741 428 
Q 3075 428 3337 486 
Q 3600 544 3809 666 
z
" transform="scale(0.015625)"/>
       <path id="DejaVuSans-68" d="M 3513 2113 
L 3513 0 
L 2938 0 
L 2938 2094 
Q 2938 2591 2744 2837 
Q 2550 3084 2163 3084 
Q 1697 3084 1428 2787 
Q 1159 2491 1159 1978 
L 1159 0 
L 581 0 
L 581 4863 
L 1159 4863 
L 1159 2956 
Q 1366 3272 1645 3428 
Q 1925 3584 2291 3584 
Q 2894 3584 3203 3211 
Q 3513 2838 3513 2113 
z
" transform="scale(0.015625)"/>
      </defs>
      <use xlink:href="#DejaVuSans-47"/>
      <use xlink:href="#DejaVuSans-72" transform="translate(77.490234 0)"/>
      <use xlink:href="#DejaVuSans-6f" transform="translate(116.353516 0)"/>
      <use xlink:href="#DejaVuSans-75" transform="translate(177.535156 0)"/>
      <use xlink:href="#DejaVuSans-6e" transform="translate(240.914062 0)"/>
      <use xlink:href="#DejaVuSans-64" transform="translate(304.292969 0)"/>
      <use xlink:href="#DejaVuSans-20" transform="translate(367.769531 0)"/>
      <use xlink:href="#DejaVuSans-74" transform="translate(399.556641 0)"/>
      <use xlink:href="#DejaVuSans-72" transform="translate(438.765625 0)"/>
      <use xlink:href="#DejaVuSans-75" transform="translate(479.878906 0)"/>
      <use xlink:href="#DejaVuSans-74" transform="translate(543.257812 0)"/>
      <use xlink:href="#DejaVuSans-68" transform="translate(582.466797 0)"/>
     </g>
    </g>
    <g id="line2d_37">
     <path d="M 55.965625 50.094687 
L 65.965625 50.094687 
L 75.965625 50.094687 
" style="fill: none; stroke-dasharray: 3.7,1.6; stroke-dashoffset: 0; stroke: #4fa8c8"/>
    </g>
    <g id="text_21">
     <!-- Upper and lower bounds -->
     <g transform="translate(83.965625 53.594687) scale(0.1 -0.1)">
      <defs>
       <path id="DejaVuSans-55" d="M 556 4666 
L 1191 4666 
L 1191 1831 
Q 1191 1081 1462 751 
Q 1734 422 2344 422 
Q 2950 422 3222 751 
Q 3494 1081 3494 1831 
L 3494 4666 
L 4128 4666 
L 4128 1753 
Q 4128 841 3676 375 
Q 3225 -91 2344 -91 
Q 1459 -91 1007 375 
Q 556 841 556 1753 
L 556 4666 
z
" transform="scale(0.015625)"/>
       <path id="DejaVuSans-70" d="M 1159 525 
L 1159 -1331 
L 581 -1331 
L 581 3500 
L 1159 3500 
L 1159 2969 
Q 1341 3281 1617 3432 
Q 1894 3584 2278 3584 
Q 2916 3584 3314 3078 
Q 3713 2572 3713 1747 
Q 3713 922 3314 415 
Q 2916 -91 2278 -91 
Q 1894 -91 1617 61 
Q 1341 213 1159 525 
z
M 3116 1747 
Q 3116 2381 2855 2742 
Q 2594 3103 2138 3103 
Q 1681 3103 1420 2742 
Q 1159 2381 1159 1747 
Q 1159 1113 1420 752 
Q 1681 391 2138 391 
Q 2594 391 2855 752 
Q 3116 1113 3116 1747 
z
" transform="scale(0.015625)"/>
       <path id="DejaVuSans-77" d="M 269 3500 
L 844 3500 
L 1563 769 
L 2278 3500 
L 2956 3500 
L 3675 769 
L 4391 3500 
L 4966 3500 
L 4050 0 
L 3372 0 
L 2619 2869 
L 1863 0 
L 1184 0 
L 269 3500 
z
" transform="scale(0.015625)"/>
       <path id="DejaVuSans-62" d="M 3116 1747 
Q 3116 2381 2855 2742 
Q 2594 3103 2138 3103 
Q 1681 3103 1420 2742 
Q 1159 2381 1159 1747 
Q 1159 1113 1420 752 
Q 1681 391 2138 391 
Q 2594 391 2855 752 
Q 3116 1113 3116 1747 
z
M 1159 2969 
Q 1341 3281 1617 3432 
Q 1894 3584 2278 3584 
Q 2916 3584 3314 3078 
Q 3713 2572 3713 1747 
Q 3713 922 3314 415 
Q 2916 -91 2278 -91 
Q 1894 -91 1617 61 
Q 1341 213 1159 525 
L 1159 0 
L 581 0 
L 581 4863 
L 1159 4863 
L 1159 2969 
z
" transform="scale(0.015625)"/>
      </defs>
      <use xlink:href="#DejaVuSans-55"/>
      <use xlink:href="#DejaVuSans-70" transform="translate(73.193359 0)"/>
      <use xlink:href="#DejaVuSans-70" transform="translate(136.669922 0)"/>
      <use xlink:href="#DejaVuSans-65" transform="translate(200.146484 0)"/>
      <use xlink:href="#DejaVuSans-72" transform="translate(261.669922 0)"/>
      <use xlink:href="#DejaVuSans-20" transform="translate(302.783203 0)"/>
      <use xlink:href="#DejaVuSans-61" transform="translate(334.570312 0)"/>
      <use xlink:href="#DejaVuSans-6e" transform="translate(395.849609 0)"/>
      <use xlink:href="#DejaVuSans-64" transform="translate(459.228516 0)"/>
      <use xlink:href="#DejaVuSans-20" transform="translate(522.705078 0)"/>
      <use xlink:href="#DejaVuSans-6c" transform="translate(554.492188 0)"/>
      <use xlink:href="#DejaVuSans-6f" transform="translate(582.275391 0)"/>
      <use xlink:href="#DejaVuSans-77" transform="translate(643.457031 0)"/>
      <use xlink:href="#DejaVuSans-65" transform="translate(725.244141 0)"/>
      <use xlink:href="#DejaVuSans-72" transform="translate(786.767578 0)"/>
      <use xlink:href="#DejaVuSans-20" transform="translate(827.880859 0)"/>
      <use xlink:href="#DejaVuSans-62" transform="translate(859.667969 0)"/>
      <use xlink:href="#DejaVuSans-6f" transform="translate(923.144531 0)"/>
      <use xlink:href="#DejaVuSans-75" transform="translate(984.326172 0)"/>
      <use xlink:href="#DejaVuSans-6e" transform="translate(1047.705078 0)"/>
      <use xlink:href="#DejaVuSans-64" transform="translate(1111.083984 0)"/>
      <use xlink:href="#DejaVuSans-73" transform="translate(1174.560547 0)"/>
     </g>
    </g>
    <g id="patch_8">
     <path d="M 55.965625 68.272812 
L 75.965625 68.272812 
L 75.965625 61.272812 
L 55.965625 61.272812 
z
" style="fill: #4fa8c8; fill-opacity: 0.2; stroke: #4fa8c8; stroke-opacity: 0.2; stroke-linejoin: miter"/>
    </g>
    <g id="text_22">
     <!-- Prediction interval -->
     <g transform="translate(83.965625 68.272812) scale(0.1 -0.1)">
      <use xlink:href="#DejaVuSans-50"/>
      <use xlink:href="#DejaVuSans-72" transform="translate(58.552734 0)"/>
      <use xlink:href="#DejaVuSans-65" transform="translate(97.416016 0)"/>
      <use xlink:href="#DejaVuSans-64" transform="translate(158.939453 0)"/>
      <use xlink:href="#DejaVuSans-69" transform="translate(222.416016 0)"/>
      <use xlink:href="#DejaVuSans-63" transform="translate(250.199219 0)"/>
      <use xlink:href="#DejaVuSans-74" transform="translate(305.179688 0)"/>
      <use xlink:href="#DejaVuSans-69" transform="translate(344.388672 0)"/>
      <use xlink:href="#DejaVuSans-6f" transform="translate(372.171875 0)"/>
      <use xlink:href="#DejaVuSans-6e" transform="translate(433.353516 0)"/>
      <use xlink:href="#DejaVuSans-20" transform="translate(496.732422 0)"/>
      <use xlink:href="#DejaVuSans-69" transform="translate(528.519531 0)"/>
      <use xlink:href="#DejaVuSans-6e" transform="translate(556.302734 0)"/>
      <use xlink:href="#DejaVuSans-74" transform="translate(619.681641 0)"/>
      <use xlink:href="#DejaVuSans-65" transform="translate(658.890625 0)"/>
      <use xlink:href="#DejaVuSans-72" transform="translate(720.414062 0)"/>
      <use xlink:href="#DejaVuSans-76" transform="translate(761.527344 0)"/>
      <use xlink:href="#DejaVuSans-61" transform="translate(820.707031 0)"/>
      <use xlink:href="#DejaVuSans-6c" transform="translate(881.986328 0)"/>
     </g>
    </g>
   </g>
  </g>
 </g>
 <defs>
  <clipPath id="paab5a021cc">
   <rect x="46.965625" y="22.318125" width="669.6" height="332.64"/>
  </clipPath>
 </defs>
</svg>
